<svg xmlns="http://www.w3.org/2000/svg" viewBox="0 0 1920 2525"><defs><style>.a,.b{fill:#abdee6;}.a{stroke:#000;stroke-miterlimit:10;stroke-width:2px;}.c{font-size:14.82px;}.ab,.ad,.ag,.aj,.ar,.au,.ba,.bj,.bp,.bu,.bw,.c,.ca,.j,.p,.s,.t,.w{font-family:Montserrat-SemiBold, Montserrat;font-weight:600;}.d{letter-spacing:0.03em;}.e{letter-spacing:0em;}.f{letter-spacing:-0.01em;}.g{letter-spacing:0em;}.h{letter-spacing:-0.06em;}.i{letter-spacing:-0.02em;}.j,.p{font-size:21.83px;}.k,.p{letter-spacing:0em;}.l{letter-spacing:0em;}.m{letter-spacing:0em;}.n{letter-spacing:0em;}.o{letter-spacing:0em;}.q{letter-spacing:-0.06em;}.r{letter-spacing:-0.01em;}.s{font-size:15.48px;}.t{font-size:21.38px;}.u{letter-spacing:-0.01em;}.v{letter-spacing:0em;}.w{font-size:27.65px;}.x{letter-spacing:0em;}.y{letter-spacing:0.03em;}.z{letter-spacing:-0.01em;}.aa{letter-spacing:0em;}.ab{font-size:22.93px;}.ac{letter-spacing:-0.01em;}.ad{font-size:21.25px;}.ae{letter-spacing:0em;}.af{letter-spacing:0em;}.ag{font-size:24.09px;}.ah{letter-spacing:0em;}.ai{letter-spacing:0em;}.aj{font-size:21.22px;}.ak{letter-spacing:0em;}.al{letter-spacing:-0.02em;}.am{letter-spacing:-0.01em;}.an{letter-spacing:0em;}.ao{letter-spacing:-0.06em;}.ap{letter-spacing:-0.01em;}.aq{letter-spacing:0em;}.ar{font-size:16.18px;}.as{letter-spacing:-0.02em;}.at{letter-spacing:0em;}.au{font-size:17.05px;}.av{letter-spacing:-0.03em;}.aw{letter-spacing:-0.01em;}.ax{letter-spacing:0em;}.ay{letter-spacing:0em;}.az{letter-spacing:-0.04em;}.ba{font-size:19.26px;letter-spacing:0.03em;}.bb{letter-spacing:0em;}.bc{letter-spacing:0em;}.bd{letter-spacing:0em;}.be{letter-spacing:-0.01em;}.bf{letter-spacing:-0.01em;}.bg{letter-spacing:-0.03em;}.bh{letter-spacing:-0.03em;}.bi{letter-spacing:-0.02em;}.bj{font-size:23.8px;}.bk{letter-spacing:0em;}.bl{letter-spacing:0em;}.bm{letter-spacing:-0.01em;}.bn{letter-spacing:0em;}.bo{letter-spacing:-0.01em;}.bp{font-size:16.58px;}.bq{letter-spacing:-0.02em;}.br{letter-spacing:0em;}.bs{letter-spacing:0em;}.bt{letter-spacing:0em;}.bu{font-size:14.02px;}.bv{letter-spacing:0em;}.bw{font-size:29.27px;}.bx{letter-spacing:-0.01em;}.by{letter-spacing:0em;}.bz{letter-spacing:0em;}.ca{font-size:31.99px;}.cb{letter-spacing:-0.01em;}.cc{letter-spacing:0em;}.cd{letter-spacing:-0.02em;}.ce{letter-spacing:0em;}.cf{letter-spacing:0em;}</style></defs><path class="a" d="M640.84,601.13c7.28,2.89,7.66,3.12,8.14,3.59,4.07,3.93,4.42,13.79-9,38.47a21.11,21.11,0,0,0,5.35-.09c2.07-.3,7.28-1.33,21.13-14.2,16.25-15.1,14.71-18.91,23.27-22.57C700,602,706,605.75,711.14,600c4.06-4.5,4.23-11,4-14.53-5.64.19-9.34,1.59-11.84,3.28-1.51,1-4.28,3.3-7.95,3-4.12-.28-5.94-3.52-10.78-7.89-7.49-6.75-9.56-4.78-16.47-10.94-4-3.6-3.09-4.06-10.78-13.81-1.44-1.82-2.73-3.4-3.89-4.78a59.88,59.88,0,0,1-6.71,5.14c-11.85,7.79-18.47,6.1-25.26,13.72-4.28,4.8-4.23,8.37-8,9.15a6.81,6.81,0,0,1-1.69.12,20.88,20.88,0,0,0,4.81,7.5C620,593.35,623.31,594.17,640.84,601.13Z"/><path class="a" d="M556.73,576.2c5.8-.49,9,9.76,19.3,10.76.87.08,5.64.48,6.82-1.61,1.61-2.88-5.38-7.24-4.55-10.5.63-2.45,5.71-4.39,20.6-4.52-.9-3.82-.24-7.71-1-13.23a42.08,42.08,0,0,0-4.66-14c-.56,1.32-1.06,2.34-2.44,2.69-5.33,1.33-9.52-10.93-23.84-25.3-12.1-12.13-20.47-14.78-20.72-23.13-.18-6.18,4.28-8.59,2.27-13.46-2.53-6.14-12.79-9.89-18.17-7.26-1.66.81-1.71,1.68-4,3.23a17.14,17.14,0,0,1-4.44,2.16c0,.41.06.82.09,1.25.7,10.54,0,12.7-1.52,14-3.23,2.68-10.29,1.51-24.59-5.92A191.41,191.41,0,0,1,454,461.56c.62,5.45-3.16,9.14-3.7,12.94-1.85,13,35.09,23.23,33.49,35.51-.36,2.8-2.7,4.74-7.38,8.61-3.14,2.61-10.56,8.75-18.73,7.53-5.91-.87-8.46-5-10.79-3.76s-.37,5.38-1.7,11.3a24,24,0,0,1-1.07,3.43,65,65,0,0,0,14.51,8c5.6,2.23,13.1,5.2,22.52,4.3,6.17-.59,6.44-2.2,10.59-2.15,9.75.12,15.83,9.11,22.9,16.14,8.2,8.15,9.37,5.35,34.67,20.18C552,577.94,554.66,576.37,556.73,576.2Z"/><path class="a" d="M478.68,647.5c5.29,2.53,10.2,2.69,12.63,6.86,2.86,4.91-1.94,8.17-1,14.66,1.9,13.07,23.88,17.52,22.57,26.5-.52,3.52-4.15,4.61-3.83,9.15.23,3.4,2.57,7.09,5.11,7.26,2.35.16,2.77-2.86,5.25-3.36,6-1.21,11.38,15,19.44,14.66,3.76-.14,3.85-3.72,7.38-4.17,9.08-1.15,13.64,21.93,30.47,28.79a30.39,30.39,0,0,0,15.94,1.58,10.43,10.43,0,0,0,1.34-3.9c.49-3.47-.87-4.11-1.34-9.38-.55-6.28.94-10.48,2.41-16,5.73-21.44,1.68-27.45,8.56-33.22,4.32-3.62,6.65-1.86,10.16-5.83,4.55-5.13,2-9.55,4.82-20.54,1.79-6.86,3.78-14.53,9.9-17.49a9.28,9.28,0,0,1,3.15-.92,12.52,12.52,0,0,1-.26-4.91c.71-4.58,3.68-5.73,3.69-8.07,0-6.3-21.47-8.46-41.72-17-16.6-7-11.37-9.38-43.43-28.25-25.91-15.25-27-12.32-35.29-20.54-7.07-7-13.15-16-22.9-16.14-4.15-.05-4.42,1.56-10.59,2.15-9.42.9-16.92-2.07-22.52-4.3a65,65,0,0,1-14.51-8c-1.75,4.46-5,9-9.15,10.56-6.33,2.36-15.87-1.78-22.79-10.89-1.23,5-6.55,11.7-13.53,15.35-11,5.77-21.13,1.34-23.67,6.27-1.73,3.34.86,9.34,5.21,11.79,8.91,5,22-6.64,28.09-1.52,2.27,1.9.69,3.68,3.81,7.61,4.35,5.46,9.29,4.37,10.84,8,2.3,5.39-7.14,11.37-4.82,15.4,1.23,2.13,4.92,2.27,12.24,2.47,11.88.33,12.86-1.85,17.25-.38,5.42,1.81,8.16,6.85,13.65,16.92,3.06,5.63,6,11.13,3.81,13.51a2.35,2.35,0,0,1-.62.48C468.85,641.16,474.12,645.32,478.68,647.5Z"/><path class="a" d="M540.36,856.91c5.76-.18,7.39-1.09,12.87-.72,9.24.62,10.83,3.63,16.65,3.59,8-.06,11.19-5.72,19.68-10.77a46.93,46.93,0,0,1,4.83-2.48c-.95-4.39-.48-6.75-3.62-13-5.83-11.62-11.4-11.38-18.46-23.84-3.81-6.74-9.32-16.45-5.35-22.82,4.13-6.62,14.9-3.79,18.19-10.65,2.53-5.26-3.22-8.17-1.07-15.46,1.69-5.71,6.2-7.29,8.56-11.32a30.39,30.39,0,0,1-15.94-1.58c-16.83-6.86-21.39-29.94-30.47-28.79-3.53.45-3.62,4-7.38,4.17-8.06.31-13.44-15.87-19.44-14.66-2.48.5-2.9,3.52-5.25,3.36-2.54-.17-4.88-3.86-5.11-7.26-.32-4.54,3.31-5.63,3.83-9.15,1.31-9-20.67-13.43-22.57-26.5-.94-6.49,3.86-9.75,1-14.66-2.43-4.17-7.34-4.33-12.63-6.86-4.56-2.18-9.83-6.34-14.25-14.82-1.49.83-3.8,0-7,.28-10.12.75-20.59,11.11-19.86,19,.58,6.27,7.88,7.43,7.22,11.6-1.08,7-21.52,4.58-28.68,16.36-4.13,6.78-.33,12.47-4.62,15.21-3.87,2.47-8.64-1.08-24.07-6.84-15.23-5.7-23.72-8.77-34.51-8-5.51.4-6,1.4-12.24,1.52-11.76.23-17.4-3.22-20.86-.19-2.76,2.41-2,7.1-1.61,9.89,1.68,10.9,11.56,17.65,10,19.39-.94,1.08-4.54-1.69-6.82-.19-2.76,1.83.73,7.11-2,11.41-2.36,3.71-6.48,2.21-13.44,6.09-2.3,1.28-10.68,5.95-10.64,12,.05,5.88,8.11,10.61,13.85,12.36,7.29,2.22,9.83-.68,17.05.95s7.16,5.24,18,12.55c14.27,9.57,19.65,6.81,25.88,15,3.7,4.87,3.8,8.48,8.43,10.64,5.17,2.43,8.4-.51,13.84,1.15,6.44,2,6.44,7.4,13.24,15.4C408,811,418.16,823,432.35,824.83c8.5,1.11,11.92-2.25,19.86.76,5.83,2.22,5,4.42,11.23,7.61,10.14,5.16,15.45,1,24.88,6.28,1.51.85,8.15,4.59,8.95,9,8.55,2.22,16.17,4.07,22.66,5.57C529.18,856.17,533.92,857.1,540.36,856.91Z"/><path class="a" d="M595.62,943.36c8.34-2.71,21.55-7,31-1.08,7.29,4.56,4.54,10.25,12.49,16.51,13.14,10.34,33.52,4.92,34.44,4.66,7.82-2.19,8.5-4.87,15.9-7.53a41.79,41.79,0,0,1,9.81-2.22,17.16,17.16,0,0,1-5-4.82c-5.34-7.94-.37-15.78-4.82-18.51s-10.9,4.09-15.78,1.27c-3.77-2.18-1.52-7.2-4-12.93-4.49-10.32-17.81-7.81-34.51-19-5.6-3.75-10.42-9.26-20.06-20.28-9.44-10.79-14.3-16.44-18.19-25.36a39.31,39.31,0,0,1-2.53-7.52,46.93,46.93,0,0,0-4.83,2.48c-8.49,5-11.71,10.71-19.68,10.77-5.82,0-7.41-3-16.65-3.59-5.48-.37-7.11.54-12.87.72-6.44.19-11.18-.74-20.43-2.87-6.49-1.5-14.11-3.35-22.66-5.57a4.51,4.51,0,0,1,.08,1.27c-.45,4.7-7.94,4.53-12.24,11.41-3.61,5.77-4,14.9.4,20,3.83,4.45,10.13,4.42,10.83,8.75.41,2.47-1.33,4.4,0,6.08,1.11,1.4,2.72.61,4.82,1.72,4.08,2.15,2.29,7.44,5.82,9.5,3.27,1.92,6.45-1.67,9.63.19s1,6.2,4.81,10.46c.17.19,4,4.42,8.63,4,5.7-.53,6.65-7.72,10.83-7.8,3-.06,4.72,3.48,12,15.78,8.62,14.49,9,14.34,9.43,16.74,1.61,8.67-2.22,15.77-1.16,19.42A80.6,80.6,0,0,1,595.62,943.36Z"/><path class="a" d="M741.32,1111.61c7.16,1.35,18.26-4.35,36.12-31.87-14.43-9.53-31.61-24.8-37.14-29.94-10.42-9.69-18.81-22.44-35.58-47.92-7.88-12-15.41-24.49-10.43-32.46,3.14-5,10.08-6.35,9.9-10.65-.11-2.38-2.3-3.33-4.9-5.07a41.79,41.79,0,0,0-9.81,2.22c-7.4,2.66-8.08,5.34-15.9,7.53-.92.26-21.3,5.68-34.44-4.66-7.95-6.26-5.2-11.95-12.49-16.51-9.48-5.92-22.69-1.63-31,1.08A80.6,80.6,0,0,0,561.19,966a3,3,0,0,0,1.16,1.69c2.08,1.46,4.76-.19,7.22,1.9,2.15,1.83,2.1,4.79,2.21,6.46.32,5.34,3,9.26,8.22,17.12s9.28,6.37,21.87,16.92a106.62,106.62,0,0,1,15.85,16.17c9.09,11.6,10.73,19.18,18.26,20.72,4.93,1,7.12-1.65,10.43.38,4.91,3,1.79,10,7.42,15.22,2.58,2.41,7,4.45,10.63,3.42,6-1.68,7.16-10.78,8.83-10.46,1.91.36-2.65,11.65,3,21.11,3.84,6.41,9.23,6.75,10.43,13.12.88,4.68-1.59,6.85.4,10.46,2.4,4.35,8.38,5.5,9.43,5.71,7.63,1.47,11-3.21,14.05-1.53,1.48.81,2,2.6,2.06,5.46a31.41,31.41,0,0,1,7.84-2C730.42,1106.66,737,1110.78,741.32,1111.61Z"/><path class="a" d="M814.75,1186.58c-.86-5.06-12.27-4.74-13.44-9.68-1-4.14,5.5-10.66,11.73-10.77,6-.1,8.05,5.73,12.49,6.64,5.17,1.06,13.09-4.68,25.71-26.74-25.57-18.63-52.93-38.79-50.49-47.3a8.28,8.28,0,0,0,0-5.83c-1.75-4-7.23-5.23-8.56-5.58-3.93-1-9.13-3.87-14.75-7.58-17.86,27.52-29,33.22-36.12,31.87-4.35-.83-10.9-4.95-20.81-3.77a31.41,31.41,0,0,0-7.84,2c.08,5.76-1.89,15.86-2.46,31.06-.48,12.44.45,16.17,3.2,19,5.44,5.61,12.87,2.46,16.86,7.8,5,6.64-3.54,15.52,1.4,21.11,3.45,3.9,11.46,4,16.85,1.71,10.23-4.27,13.13-17.75,14.45-17.31s-6,14.24-.2,20.92c4,4.59,12.44,3.86,13.64,8.75.56,2.28-.86,4.19.4,5.32s3.92.08,6.62-.57c3.35-.8,8.91-1.4,12.94-.33,5.68-5.67,10.61-10.51,15-14.62C812.73,1191.37,815.17,1189.09,814.75,1186.58Z"/><path class="a" d="M869.24,1252.32c3.55,1.09,4.81,2.31,7.81,2.15,6.5-.34,7.91-6.46,13.06-7,6.7-.69,9.08,9.2,15.75,10,8.87,1,14-15.46,25.26-24.89,5.89-4.9,15.26-9.39,31-9.7-.47-.11-.95-.23-1.46-.37-12.45-3.59-13.19-14.41-27-19-4-1.32-6.59-1.33-8.56-.25-3.37,1.83-2.89,5.75-4.82,6.33-3.79,1.16-11.09-12.22-16.05-19.52-5.83-8.58-14.93-15.56-32.9-29.16-6.13-4.64-13.06-9.67-20.13-14.82-12.62,22.06-20.54,27.8-25.71,26.74-4.44-.91-6.52-6.74-12.49-6.64-6.23.11-12.71,6.63-11.73,10.77,1.17,4.94,12.58,4.62,13.44,9.68.42,2.51-2,4.79-3.41,6.1-4.36,4.11-9.29,9-15,14.62a8.9,8.9,0,0,1,2.91,1.28c5.86,4.24-.81,15.37,5.42,20,3.16,2.34,6.14.41,11.23,3.8,1.83,1.22,2.07,1.89,5.82,6.28,9.34,10.95,11.91,11.6,13,11.79,3.11.53,3.3-1.06,8.63-1.14,4.48-.07,9.31,1,11,2.42A31.18,31.18,0,0,1,869.24,1252.32Z"/><path class="a" d="M931.88,1251.33c3.22-.86,3.75-5.63,6-5.56,4.11.13,3,15.3,11.92,19.37,2.75,1.26,8.15,2.25,12.49.18,2.88-1.36,4.47-3.67,6.82-3.23,2,.39,2.55,2.45,3.78,3.41,1.84,1.44,6.14,1.09,16.18-5-2.77-.79-5.11-1.63-6.21-4.1s-.24-5.07.27-6.59c2.77-8.27,12-11.49,11.24-13.19-.52-1.08-4.13.75-9.63-.25-5.93-1.08-8.3-4.4-10.17-3.29-2.45,1.45.41,8-1.6,8.87-1.36.62-4.68-1.45-5.62-4.31-1.55-4.74,4.94-8.77,2.94-11.92-1.45-2.28-4.19-2-8.17-2.92-15.79.31-25.16,4.8-31,9.7-4,3.38-7.3,7.67-10.22,11.72C924.82,1248.94,928.77,1252.17,931.88,1251.33Z"/><path class="a" d="M901.6,1366.4c8,2.5,8,10.71,16.75,13.45,8,2.5,11-3.44,19.87-1.35,9.51,2.25,17.92,11.89,17.6,20.18-.18,4.51-2.82,5.47-2.28,9.69.87,6.7,8.74,13.52,14.2,12.37,7-1.45,7.19-15.32,13.91-15.87,3.65-.3,5.54,3.65,9.36,2.69s5.44-5.74,5.68-6.46c2.06-6.3-2.64-9.74-3.12-15.87-1-12.46,16.14-27,26.68-25,4.38.84,4.66,4,9.65,4.57,5.78.68,7.38-3.32,17-6.72,9.41-3.32,14.44-1.83,16.46-5.38,1.29-2.28.56-5.2-.73-7.88-3.3,1.16-6.11,2.64-7.79,1.15s.17-4.11-1.34-7.61c-1.71-4-6.06-5-10.43-7.1-8.67-4.13-13.53-10.57-22.2-22.06a108.32,108.32,0,0,1-7.22-10.9c-12-20.66-8.88-30.64-18.19-35.5a32.45,32.45,0,0,0-6.37-2.24c-10,6-14.34,6.4-16.18,5-1.23-1-1.75-3-3.78-3.41-2.35-.44-3.94,1.87-6.82,3.23-4.34,2.07-9.74,1.08-12.49-.18-8.9-4.07-7.81-19.24-11.92-19.37-2.3-.07-2.83,4.7-6,5.56s-7.06-2.39-11-7.07c-5.21,7.27-9.35,13.81-15,13.17-6.67-.75-9.05-10.64-15.75-10-5.15.53-6.56,6.65-13.06,7-3,.16-4.26-1.06-7.81-2.15a31.18,31.18,0,0,0-14.82-.62,1.56,1.56,0,0,1,.63,1c.17,2-6,2.82-6.42,6.28-.22,2,1.83,2.71,1.81,4.37-.05,3.61-9.78,6.18-21.47,9.7-19.72,5.94-23.12,8-23.67,10.84-.72,3.69,3.59,7.77,5,9.13,4.73,4.48,8.79,3.66,10.44,7.22s-2.1,5.71-1,10.08c1.19,4.73,6.14,4.43,13.85,11.22,7.27,6.42,5.86,9.34,11.23,11.6,6.11,2.57,10.8,0,13.84,3.42,2.29,2.58.2,4.66,2.41,7.61,3.23,4.3,9,1.65,14.45,5.9,1.36,1.06,2.86,4.15,5.81,10.27,1.84,3.81,3.23,6.7,4.14,9C893.13,1365.21,898.24,1365.34,901.6,1366.4Z"/><path class="a" d="M643.49,481.67c2.89,1.59,3.26,3,6.25,4.13,6.36,2.33,13.19-1.1,15-2,4.79-2.4,13-8.51,12.49-15.78-.16-2.24-1.35-7.3-15.33-14.71-8.22-4.35-21.93-10.05-41.61-11.78-.73,7.06-5.26,10.25-3.9,17.07,2.31,11.58,17.75,14.34,16.46,21a.14.14,0,0,1,0,.06C637.87,479.34,641.24,480.43,643.49,481.67Z"/><path class="a" d="M681.06,449.74a41.45,41.45,0,0,1,21-3.22c14.82,1.23,15.68,8.33,33.21,10.76,6,.83,16.23,2.25,21-2.69.89-.92,2.09-2.59,4.26-3,3.76-.65,6.26,3.27,8.52,3.76,3.54.78,9.64-6.23,20.27-29.44a9.73,9.73,0,0,1-2.2-1.32c-5-4-3-11.24-7.19-12.55-3.35-1-5.51,3.19-8.71,2.51-7-1.49-4-23.49-12.11-26.19-4.62-1.54-7.34,5-15.89,5-8.12,0-9.41-5.93-17.79-6.81-9.27-1-20.47,4.95-22.71,12.55-1.9,6.46,3.93,9.82,1.52,14.71-3.53,7.15-20.66,9.46-27.25,3.23-3-2.87-1.32-5.18-4.54-9.69-5.66-7.9-14.32-5.52-17.41-10.76-1.65-2.8-.57-5.84,1.4-9.17-13-2.09-17.77,0-19.57,2.54-3.68,5.22,3.74,14.17-1.89,23.31-1.57,2.54-3.41,3.92-5.87,5.74a36.76,36.76,0,0,1-13.78,6.23,25.12,25.12,0,0,1,5,13.14,18.59,18.59,0,0,1-.07,3.11c19.68,1.73,33.39,7.43,41.61,11.78a66.1,66.1,0,0,1,7.62,4.64A37.39,37.39,0,0,1,681.06,449.74Z"/><path class="a" d="M711.14,461.85A30.48,30.48,0,0,0,719.66,474c6.25,5.26,10.37,4.09,15.33,8.61,2.39,2.18,5.13,5.84,6.42,12.27,4.34,3.32,4.35,8.93,7.92,9.38,3.11.39,4.14-3.75,9-4.19,3.5-.31,7.48,1.41,7.83,3.43.28,1.65-2.07,2.46-6,7-2.73,3.16-4.09,4.74-4,6.47.23,5,11,9.69,14.24,7.22,2-1.53.17-5.06,2.81-7.22,1.53-1.26,3.21-.93,6-1.14,1.7-.13,9.93-.77,13.24-5,3-3.77,2-10.5-1.81-14.64-3.49-3.8-9.83-5.92-13.24-4-1.8,1-1.86,2.65-4.61,4-1.75.85-4.55,1.56-5.42.57-1-1.17.91-4.4,2.61-6.28,2.53-2.79,7.2-5.51,12.24-4.94,4.79.55,4.74,3.49,10.23,5.32,5.69,1.91,13.5,1.33,17.85-2.66,3.5-3.2,2-6,5.22-7.79,4.26-2.3,8.09,1.84,14-.38.64-.24,5-1.86,6-5.33,1.14-3.75-2.66-6-2-10.08.52-3.23,3.42-4.7,6.22-7,11.27-9.41,10.38-24.14,15-24,1.54.05,1.39,1.64,4.62,3.42,3,1.67,8.08,3,11.43,1.14s2-5,5-9.7c3.1-4.88,6.4-4.45,12.84-9.32,3.57-2.7,2.77-3,13.44-15.4,8.4-9.77,11.15-12.21,14.24-11.79a7.11,7.11,0,0,1,5.22,4c2,4.57-3.54,8.64-1.61,12,1.42,2.44,6.16,3.35,9,1.9,4.36-2.19,5-10.13,2.21-15.21-2.9-5.28-7.67-4.1-13.84-11.22-3.67-4.22-2.74-5.5-5.82-7.79A19.55,19.55,0,0,0,895,373c-7.54,2.33-8.27,8.35-14.45,8.56-4.13.14-4.34-2.53-9.63-3-7.17-.7-9.37,4-14.64,2.66s-5.33-6.77-9.83-7.23c-5.94-.6-11.31,8.33-12.64,7.42a.5.5,0,0,1-.18-.47c-12.61,6.35-15.25,11.25-15.08,14.68.27,5.56,8.4,9.35,6.43,13.27-1.1,2.21-3.68,1.94-7.94,5-4.93,3.57-4.08,6.48-7.95,9-5.59,3.61-14.15,5.53-19.75,3.11-10.63,23.21-16.73,30.22-20.27,29.44-2.26-.49-4.76-4.41-8.52-3.76-2.17.37-3.37,2-4.26,3-4.77,4.94-15,3.52-21,2.69-14-1.94-17.36-6.85-25.68-9.38A28.75,28.75,0,0,0,711.14,461.85Z"/><path class="a" d="M706.32,486.87c-7.93,7.17-.48,16.4-8.23,28.79-4.27,6.83-8.42,7-8.8,12.11-.49,6.41,5.53,14.24,12.2,15.07,7.76.95,12-8.11,19-6.73a10.64,10.64,0,0,1,6.35,4.57,16.54,16.54,0,0,0,2-3.38c3.59-7.74,2.7-15.67,4.42-15.78.75,0,.89,1.49,2.6,3.23,3.24,3.3,9.45,4.62,11.24,2.67,1.5-1.64-.08-5.56-1.81-7.8-1.09-1.42-1.64-1.39-2.6-2.47-3.67-4.1,0-9.23-2.41-12.17-3.31-4-13.43,1.35-15.65-1.9-1.54-2.25,1.28-7.74,5.82-9.7s8.86.2,9.23.38a9.39,9.39,0,0,1,1.71,1.08c-1.29-6.43-4-10.09-6.42-12.27-4.92-4.48-9-3.38-15.17-8.48a15.63,15.63,0,0,1-2.15,4.71C714.27,483.83,710.35,483.23,706.32,486.87Z"/><path class="a" d="M645.76,513.24c1.32,3,4.62,2.83,11.93,7.18,6.9,4.1,5.61,5.24,9.27,6.45,5.39,1.79,8.48-.6,19.87-1.61,1.13-.1,2.21-.18,3.22-.23,1.45-2.73,4.7-4,8-9.37,7.75-12.39.3-21.62,8.23-28.79,4-3.64,7.95-3,11.35-8.07a15.63,15.63,0,0,0,2.15-4.71l-.16-.13a30.48,30.48,0,0,1-8.52-12.11,28.75,28.75,0,0,1-1.55-14,35.79,35.79,0,0,0-7.53-1.38,41.45,41.45,0,0,0-21,3.22A37.39,37.39,0,0,0,669.47,458c6.84,4.9,7.58,8.33,7.71,10.07.51,7.27-7.7,13.38-12.49,15.78-1.44.73-6.29,3.15-11.5,2.72a49.85,49.85,0,0,1-4.4,16.12C646.68,507.14,644.4,510.14,645.76,513.24Z"/><path class="a" d="M645.57,542.3c-.88,3.26,2.49,5.14,11.74,16.86,7.69,9.75,6.75,10.21,10.78,13.81,6.91,6.16,9,4.19,16.47,10.94,4.84,4.37,6.66,7.61,10.78,7.89,3.67.25,6.44-2,7.95-3,2.5-1.69,6.2-3.09,11.84-3.28-.08-1.06-.19-1.86-.24-2.21-.95-6.07-3.45-6-4.28-11.41-1.41-9,4.35-17.17,7.62-21.8,4.09-5.8,6.47-6.59,8.63-9.37a10.64,10.64,0,0,0-6.35-4.57c-7-1.38-11.26,7.68-19,6.73-6.67-.83-12.69-8.66-12.2-15.07a6.6,6.6,0,0,1,.76-2.74c-1,.05-2.09.13-3.22.23-10.44.92-13.91,3-18.56,2a63.47,63.47,0,0,1-7.18,5.38C651.8,538.6,646.6,538.51,645.57,542.3Z"/><path class="a" d="M530.33,476.65c5.38-2.63,15.64,1.12,18.17,7.26,2,4.87-2.45,7.28-2.27,13.46.25,8.35,8.62,11,20.72,23.13,14.32,14.37,18.51,26.63,23.84,25.3,3.09-.78,1.77-4.92,6.53-8.35,6.49-4.66,13,.06,20.44-4.84,1.13-.74,5.26-3.48,6-7.8.84-5.23-4.25-7.25-8.8-16.68-2.3-4.77-5.35-11.09-2.84-16.95a13,13,0,0,1,3.43-4.59c-4.79-1.58-7.23-5.59-12.23-4.83-4.1.63-4.64,3.65-8.23,3.5-4.76-.21-9.53-5.79-8.51-9.15.66-2.2,3.38-2.05,5.39-4.3,1.33-1.49,2.2-3.89,1.64-7.88a3.47,3.47,0,0,1-.41.16c-5.74,1.84-9.81-8.15-20.06-8.43-5.77-.15-6.83,2.95-13.06,2.51-2.56-.17-6.43-1-13.62-6.27a75.4,75.4,0,0,1-14.59-14.23c-2.35,7.17-11.11,9.37-12.47,21.22-.7,6.05,1.4,7.11,2.56,23.15a17.14,17.14,0,0,0,4.44-2.16C528.62,478.33,528.67,477.46,530.33,476.65Z"/><path class="a" d="M543.42,437.26c5.22,5.52,9.77,10.33,10.93,16.22,1.24,6.24-2.44,7.54-2.27,13.45.25,8.35,8.63,11,20.72,23.14,14.33,14.36,18.51,26.62,23.85,25.29,3.09-.78,1.76-4.92,6.53-8.34,6.48-4.67,13,.05,20.43-4.85,1.13-.74,5.27-3.48,6-7.8.91-5.6-5.19-6.53-8.8-16.68-1.58-4.46-1.2-6.5-4.43-17-.46-1.5-.87-2.75-1.15-3.59-1.27-2.52-3.28-5.53-6.05-5.79-3.27-.3-4.59,3.66-8.24,3.5-4.76-.21-9.52-5.79-8.51-9.15.66-2.2,3.38-2.05,5.39-4.3,1.33-1.49,2.2-3.89,1.64-7.88l-.41.17c-5.73,1.83-9.81-8.16-20.06-8.44-5.77-.15-6.82,2.95-13.05,2.52-2.56-.18-6.44-1-13.63-6.28a74.82,74.82,0,0,1-14.58-14.23c-2.36,7.17-11.11,9.38-12.48,21.22a20.43,20.43,0,0,0-.13,2.72c.11,4.13.7,9.11,1.44,9.14s1.63-3.77,3.16-17.1c2,2.08,5,5.22,8.7,9S542.11,435.87,543.42,437.26Z"/><path class="a" d="M632.52,533.42c3.43,3.61,3.94,6,7.09,8.34a16.1,16.1,0,0,0,6.06,2.71,3.44,3.44,0,0,1-.1-2.17c1-3.79,6.23-3.7,15.52-9.69a63.47,63.47,0,0,0,7.18-5.38c-.43-.1-.86-.21-1.31-.36-3.66-1.21-2.37-2.35-9.27-6.45-7.31-4.35-10.61-4.18-11.93-7.18s.92-6.1,3-10.58a49.85,49.85,0,0,0,4.4-16.12,13.32,13.32,0,0,1-3.45-.74c-3-1.1-3.36-2.54-6.25-4.13-2.25-1.24-5.62-2.33-10.71-2-.92,4.4-8.65,8.11-14.74,7.47a11.44,11.44,0,0,1-2.53-.55,13,13,0,0,0-3.43,4.59c-2.51,5.86.54,12.18,2.84,16.95,4.55,9.43,9.64,11.45,8.8,16.68a8,8,0,0,1-.57,1.91A31.67,31.67,0,0,1,632.52,533.42Z"/><path class="a" d="M601,575.12c2.72,4,8,8.2,12.49,7.27,3.72-.78,3.67-4.35,8-9.15,6.79-7.62,13.41-5.93,25.26-13.72a59.88,59.88,0,0,0,6.71-5.14c-4.58-5.49-7-7.93-7.75-9.91a16.1,16.1,0,0,1-6.06-2.71c-3.15-2.34-3.66-4.73-7.09-8.34a31.67,31.67,0,0,0-9.37-6.7,14.44,14.44,0,0,1-5.39,5.89c-7.4,4.9-14,.18-20.44,4.84a11.48,11.48,0,0,0-4.09,5.66,42.08,42.08,0,0,1,4.66,14C599,564.9,597.2,569.46,601,575.12Z"/><path class="a" d="M649,604.72c-.48-.47-.86-.7-8.14-3.59-17.53-7-20.82-7.78-24.22-11.12a20.88,20.88,0,0,1-4.81-7.5c-4.07-.21-8.41-3.85-10.8-7.39a14.33,14.33,0,0,1-2.11-4.79c-14.89.13-20,2.07-20.6,4.52-.83,3.26,6.16,7.62,4.55,10.5-1.18,2.09-6,1.69-6.82,1.61-10.27-1-13.5-11.25-19.3-10.76-2.07.17-4.69,1.74-7.43,7.44l.62.36c32.06,18.87,26.83,21.29,43.43,28.25,20.25,8.49,41.75,10.65,41.72,17,0,2.34-3,3.49-3.69,8.07a12.52,12.52,0,0,0,.26,4.91c2.65-.27,5.08.66,8.35,1C653.4,618.51,653.05,608.65,649,604.72Z"/><path class="a" d="M259.93,317c14.93,5.81,6.37,38.37,24.22,47,8.51,4.11,20.81,1.7,23.84-3.59,2.61-4.55-3.36-8.24-3.78-17.58-.62-13.8,11.87-18,10.21-27.62-1.82-10.66-17.54-8.58-25.73-22.24-9-15,1.67-31.49-7.19-36.59-3.66-2.11-6,.42-18.17-1.8-7.62-1.38-12-2.17-13.24-5-2.64-6,11.29-15.7,8.7-19.37-1.38-2-5.73.27-9.46-2.15a8.47,8.47,0,0,1-3.31-4.63,6.55,6.55,0,0,1-2.46-.08c-7.79-1.86-3.72-19.19-15.65-27.38-.84-.58-7.44-5.12-12.84-3-7.07,2.72-3.22,13.4-12.43,20.92-5.44,4.42-10.91,4.08-13.25,9.5-1.3,3,0,4.09-.8,7.61-1.44,6.26-8,13.33-16.85,14.45-8.5,1.08-16.13-3.71-19.66-8.74-3.72-5.31-1.35-8.67-5.62-12.94-3.73-3.72-6.33-1.95-13.64-6.08-7.7-4.35-6.54-7.3-12.44-9.51-7.55-2.83-10.88,1.47-16.45-1.9-4.28-2.6-3.52-5.88-9.23-9.13-1.86-1.06-5.65-3.22-8.42-1.9-3,1.42-1.35,5.23-4.82,8.75s-7.36,1.87-9.23,4.94c-2.1,3.46,2.29,6.44.4,10.65s-7.49,3.81-8.42,8c-.45,2,.55,3.45.41,4.71,11.86,11.52,13.41,17.11,11.85,20-.9,1.69-2.43,1.71-3.12,3.5-2,5.14,7.9,11.93,20.15,22.87,18,16.05,22.54,24.54,29,22.87,3.6-.94,7.32-5,6.81-7.8-.43-2.41-3.79-3.34-3.4-5.12.28-1.32,2.47-2.3,4.26-2.15,3.17.27,5.31,4.14,6,7,1,4.26-1.34,6.47-1.71,9.68-1,8.77,12.77,21.67,23,20.18,12-1.75,11.36-22.23,23.56-24.21,10.13-1.65,14.35,11.83,30.94,13.18,11.58.94,14.12-5.25,21.86-2.42,4.26,1.56,7.95,5.07,10.74,9.45C251.87,315.57,256.7,315.76,259.93,317Z"/><path class="a" d="M349.53,337.55c3-2.07,4.05-4.94,8.23-5.92,10.48-2.44,18.76,12.11,26.11,9.42,4.39-1.61,6.45-8.63,6-13.72-1-10.1-12-13.54-10.5-21.26.48-2.44,2.27-5.55,5.11-6.45,6.76-2.15,12.58,10.47,21,9.41,6.57-.82,10.62-9.46,11.93-14,3.74-13-5.94-24.74-7.1-26.1-8.53-10-16.37-7-21-15.33s1.58-14.63,0-27.71a42.11,42.11,0,0,0-7.2-18.53,18.42,18.42,0,0,1-3.68.76c-6.18.66-13.85-1.34-16.05-5.7-1.83-3.62,1.38-6.32-.4-9.13-3.12-4.92-17.44-3.8-27.69,1.52-3.75,2-10.27,5.33-13.24,12.17s.71,10.44-1.2,24.72c-1.34,10-3.65,11.86-5.22,12.55-3.26,1.45-8.23.09-9.23-2.28-.91-2.18,2-4.08,1.21-7.23-.57-2.23-2.61-3.51-3.61-4.18-7.77-5.13-13.54-12.58-20.87-18.26-16.3-12.63-17.9-13.74-20.86-13.31-5.34.79-10.79,6-11.24,11-.39,4.39,3.16,6.88,1.61,9.89a7.78,7.78,0,0,1-5.57,3.5,8.47,8.47,0,0,0,3.31,4.63c3.73,2.42,8.08.19,9.46,2.15,2.59,3.67-11.34,13.34-8.7,19.37,1.24,2.85,5.62,3.64,13.24,5,12.21,2.22,14.51-.31,18.17,1.8,8.86,5.1-1.83,21.55,7.19,36.59,8.19,13.66,23.91,11.58,25.73,22.24.92,5.38-2.54,9-5.68,13.63C333.16,342,344.13,341.3,349.53,337.55Z"/><path class="a" d="M427.58,281.86c7.76,5,7.2,14.12,13.63,15.6,6,1.39,12.5-5.33,13.05-5.92,7.95-8.46,4.36-19.83,9.66-21.52,3.44-1.1,5.67,3.48,9.65,2.69,5.34-1.07,5.89-10.29,10.78-22.6,3.25-8.16,10-25.18,19.3-25.83,7.15-.5,10.88,9,18.74,7.53,4.84-.92,5.06-4.86,9.65-5.38,7.41-.83,11.24,9,17,8.08,4.64-.73,9.17-8.13,8.51-14.53C556,204.75,526,203.3,523,190.92c-1.74-7,5-18.38,39-37.66a14.79,14.79,0,0,1-3.06-4.46c-2-4.69.53-6.5-1.61-10.65s-5.46-3.46-9.63-8.75c-3.36-4.26-1.59-5.24-4.41-8.36-5.24-5.81-13-4.23-14.45-8.75-.82-2.54,1.24-4.14,0-5.71-1.66-2.1-7.22-1.56-11.23.38-7.41,3.6-4.93,9.77-11.24,14.84-9,7.21-19.49-.93-29.29,7.22-2.9,2.42-4.3,5.06-8.42,6.09-4.85,1.2-7.27-1.37-10.84.38-2.7,1.33-2.45,3.38-6,8.75-4.06,6.1-5.79,5.56-7.23,8.74-3.18,7.07,4.62,11.37,3.61,19.78-1.11,9.34-12.34,17.56-22.46,19-8.44,1.21-9.44-3.24-17.26-2.29-12.92,1.58-15.37,14.37-26.41,17.88a42.11,42.11,0,0,1,7.2,18.53c1.58,13.08-4.7,19.29,0,27.71s12.48,5.34,21,15.33a37.47,37.47,0,0,1,6,10.08A20.11,20.11,0,0,1,427.58,281.86Z"/><path class="a" d="M435,547.68c5.28-2,9-8.7,10.22-14,1.33-5.92-.54-10.07,1.7-11.3s4.88,2.89,10.79,3.76c8.17,1.22,15.59-4.92,18.73-7.53,4.68-3.87,7-5.81,7.38-8.61,1.6-12.28-35.34-22.51-33.49-35.51.59-4.16,5.08-8.19,3.41-14.53-.44-1.66-1.09-2.66-1.71-5.38a30.27,30.27,0,0,1-.56-9.69c.54-9.45-12.49-25.62-25.55-26.37-4.84-.27-6.83,1.73-13.06.54-5.7-1.09-6.86-3.32-11.35-4.84-10.87-3.69-16.68,5.1-25,2.15-8.48-3-13.82-16.23-11.92-26.36,1.68-8.95,8.7-13.86,6.24-17.76-1.42-2.27-5.06-2.65-9.65-2.69-19-.19-26.61,5.65-35.76,4.84-5-.45-11.66-3-19-12.08-4.54,3.9-14.8,5.25-22.2,1.68-17.85-8.63-9.29-41.19-24.22-47-3.23-1.25-8.06-1.44-15.47,2.28,4.8,7.53,6.92,17.63,4.59,24.72a27.63,27.63,0,0,0-2,8.61c-.29,5.89,1.69,9.74,2.55,12.64,2.77,9.34-3.08,18.92-6.81,25-9.72,15.92-23.06,16.63-22.71,25,.31,7.33,10.55,8.57,10.79,17.22.2,7.15-6.74,9.38-6,17.21.58,5.87,4.67,6.66,4.26,11.84-.51,6.32-7.15,12.32-11.36,11.57-2.58-.46-3.14-3.26-6.24-3.5-2.71-.2-4.91,1.75-5.68,2.43-4.59,4.06-4.56,10.53-4.82,12.64-.5,4-4.09,9-16,14.48l.67.26c7.13,2.48,12.34-2,19.66,2.47,3.36,2.06,3.46,3.73,7.43,5.33a21.46,21.46,0,0,0,13,.95c3.6-1,4.09-2.28,6-1.9,3.68.72,3,5.79,7.22,8.75,5.06,3.59,9.9-1.11,15.25,2.09,5.53,3.31,2.86,9.85,8.62,13.12,4.28,2.42,10.89,1.74,13-1.14,1.73-2.32-.29-4.89,1.81-8.18,1.45-2.28,3.7-3,5.21-3.8,8.19-4.16,5-13.8,11.84-19.4,7.36-6.05,15.9,1.2,27.08-5.89,5.28-3.35,4.12-5.43,8.63-7.42,8.9-3.93,22.46.16,29.89,8,5.75,6,3.84,10.1,10.64,15.21,5.26,3.95,7.34,2.22,13.24,6.46,7.32,5.27,5.79,9.15,12.24,13.13,7.51,4.63,13.26,1.63,15.24,5.13a6.05,6.05,0,0,1,.29,4.43C419.09,545.9,428.63,550,435,547.68Z"/><path class="a" d="M459.66,420.42c.57-3.91-2.56-5.34-4-12.11-1.34-6.42-1.07-17.23,5.4-23.94,8.17-8.5,22.07-6.13,23.84-13.19.35-1.4-.23-1.36-.28-4.84-.12-7.07,2.2-11.83,2.83-14,2.62-8.93-10.22-19.14-20.15-30.67A116.82,116.82,0,0,1,450.15,295c-2.49,1.68-5.77,3.18-8.94,2.45-6.43-1.48-5.87-10.63-13.63-15.6A20.11,20.11,0,0,0,416.24,279a24.89,24.89,0,0,1,1.13,16c-1.31,4.53-5.36,13.17-11.93,14-8.42,1.06-14.24-11.56-21-9.41-2.84.9-4.63,4-5.11,6.45-1.52,7.72,9.53,11.16,10.5,21.26.49,5.09-1.57,12.11-6,13.72-7.35,2.69-15.63-11.86-26.11-9.42-4.18,1-5.25,3.85-8.23,5.92-5.4,3.75-16.37,4.4-40.79-8.7-2.51,3.65-4.81,7.87-4.53,14,.42,9.34,6.39,13,3.78,17.58a7.29,7.29,0,0,1-1.64,1.91c7.39,9.06,14,11.63,19,12.08,9.15.81,16.73-5,35.76-4.84,4.59,0,8.23.42,9.65,2.69,2.46,3.9-4.56,8.81-6.24,17.76-1.9,10.13,3.44,23.35,11.92,26.36,8.3,2.95,14.11-5.84,25-2.15,4.49,1.52,5.65,3.75,11.35,4.84,6.23,1.19,8.22-.81,13.06-.54,7.78.45,15.55,6.36,20.44,13.07C456.15,427.73,459.17,423.75,459.66,420.42Z"/><path class="a" d="M563.54,228.32c7.56-2.2,7.37-11.59,16.18-14.8,5.58-2,12.89-.91,14.76,2.42s-3.25,6.63-4,13.45c-.89,8.47,5.39,19.49,13.06,21,9.54,1.86,14.63-12.33,30.37-12.38,2.68,0,8.48,0,11.35,3.5,3.41,4.18-.54,9.38,3.41,14.8.18.25,3.44,4.6,8.23,4.84,6.23.31,8-6.7,13.62-7.26,7.84-.78,11.12,12,19.87,14.26,5.16,1.31,12.82-.92,24.52-13.28a18.39,18.39,0,0,0,1.68-6.41c.56-6.77-2.49-10.21.41-14.84.45-.72,2.1-3.36,4.41-3.42,2.58-.07,3.42,3.15,7.22,4.56,2,.76,5.13,1.07,7.22,0,4.66-2.38,1.29-10,4.42-21.29s9.29-14,7.22-18.64c-1.54-3.47-5.51-3.25-16.85-7.23-16.87-5.91-16.08-9.19-23.67-9.51-3.37-.14-3.09.52-24.88,6.47-9.85,2.69-12.47,3.25-15.25,1.9-6.07-2.95-3.34-10.42-9.23-15.21-2.46-2-6-3.16-27.68-.76-20.84,2.3-24.64,4.13-29.69,1.14-7.69-4.55-5.39-12.64-12.84-15.21-7-2.44-11.67,3.92-19.67.76a16.94,16.94,0,0,1-5.76-3.91c-34,19.28-40.79,30.63-39,37.66C526,203.3,556,204.75,557.58,220a15.35,15.35,0,0,1-1.53,8A12.65,12.65,0,0,0,563.54,228.32Z"/><path class="a" d="M510.84,390.2c6.07,5.47,14.4,13,25.74,13.63,9.46.52,20.72-3.77,21.95-9.69,1.12-5.38-6.91-7.95-6.81-16.14.06-5.64,3.89-6,5.3-13.27,1.55-8-2.67-9.74-1.9-17.94,1-10.23,7.91-11.42,6.82-17.94-1.48-8.8-14.52-9-15.9-17.93-1-6.43,5.29-9.13,4.16-17.94-.69-5.44-3.26-5.77-3.78-9.69-1.53-11.45,19.27-17.05,23.09-30.13,1.51-5.2.74-12.94-8.67-24.44a14.78,14.78,0,0,1-4.79-.75c-1.63,3.43-4.28,6.11-7,6.54-5.79.9-9.62-8.91-17-8.08-4.59.52-4.81,4.46-9.65,5.38-7.86,1.51-11.59-8-18.74-7.53-9.29.65-16,17.67-19.3,25.83-4.89,12.31-5.44,21.53-10.78,22.6-4,.79-6.21-3.79-9.65-2.69-5.3,1.69-1.71,13.06-9.66,21.52a25.75,25.75,0,0,1-4.11,3.47,116.82,116.82,0,0,0,17.17,26.67c9.93,11.53,22.77,21.74,20.15,30.67-.63,2.16-3,6.92-2.83,14a18.92,18.92,0,0,0,.21,2.75,36.07,36.07,0,0,1,7.07,2.81C500.81,376.59,501.6,381.84,510.84,390.2Z"/><path class="a" d="M581.14,319.79c.9.2,7.87,1.79,10.5,7.27,3.45,7.14-4.3,12.94-1.41,21,1.47,4.11,5.91,9.31,11.07,9.69,12.37.91,19.68-26.61,33.49-25.56,4.07.31,6,2.9,9.08,1.61,4.62-1.93,3-9,6-17.21,5.34-14.88,18.57-14.07,20.16-25.3,1-6.9-3.8-8.83-7.67-22.33a71.71,71.71,0,0,1-1.88-8.51,7.06,7.06,0,0,1-3.51.71c-4.79-.24-8-4.59-8.23-4.84-4-5.42,0-10.62-3.41-14.8-2.87-3.52-8.67-3.51-11.35-3.5-15.74.05-20.83,14.24-30.37,12.38-7.67-1.5-14-12.52-13.06-21,.72-6.82,5.89-10,4-13.45s-9.18-4.46-14.76-2.42c-8.81,3.21-8.62,12.6-16.18,14.8a10.74,10.74,0,0,1-2.7.4c9.41,11.5,10.18,19.24,8.67,24.44-3.82,13.08-24.62,18.68-23.09,30.13.52,3.92,3.09,4.25,3.78,9.69,1.13,8.81-5.15,11.51-4.16,17.94,1.29,8.36,12.72,9.07,15.45,16.28C567.16,321.22,574.65,318.4,581.14,319.79Z"/><path class="a" d="M664.88,365.8c3,12.86-14.56,22.86-9.84,30.85,3.09,5.24,11.75,2.86,17.41,10.76,3.22,4.51,1.49,6.82,4.54,9.69,6.59,6.23,23.72,3.92,27.25-3.23,2.41-4.89-3.42-8.25-1.52-14.71,2.24-7.6,13.44-13.52,22.71-12.55,8.38.88,9.67,6.8,17.79,6.81,8.55,0,11.27-6.56,15.89-5,8.1,2.7,5.08,24.7,12.11,26.19,3.2.68,5.36-3.55,8.71-2.51,4.24,1.31,2.23,8.58,7.19,12.55,5.3,4.26,15.56,2.33,22-1.79,3.87-2.49,3-5.4,7.95-9,4.26-3.08,6.84-2.81,7.94-5,2-3.92-6.16-7.71-6.43-13.27-.17-3.43,2.47-8.33,15.08-14.68a27.49,27.49,0,0,1,.78-2.95c1.31-5.78-2.22-13.62-7.22-15.6-5.28-2.08-8.62,3.77-15.25,2.1-4.67-1.18-4.24-4.39-10.23-8.94-9.33-7.09-19.34-6.1-19.66-9.83-.22-2.5,4.27-3.33,4.81-7.35s-3.33-7.5-4-8.11c-5.19-4.69-9.84-2-20.6-5.08-10-2.88-10-6.4-18.19-7.09-6.82-.58-10.12,1.59-12-.51-3.14-3.45,3.58-11.71-.54-16.48-1.16-1.35-2-1-2.94-2.54-2.5-3.9.3-9.61.93-10.9,1.64-3.34,2.63-2.91,3.21-4.95C734,278.1,730,272.24,725.45,269c-6.34-4.51-11.37-2.24-13.24-5.7-1.38-2.55.95-4.54,2.73-8.42-11.7,12.36-19.36,14.59-24.52,13.28-8.75-2.23-12-15-19.87-14.26-4.42.44-6.45,4.81-10.11,6.55a71.71,71.71,0,0,0,1.88,8.51c3.87,13.5,8.64,15.43,7.67,22.33-1.59,11.23-14.82,10.42-20.16,25.3-3,8.23-1.34,15.28-6,17.21a4.19,4.19,0,0,1-1.84.35,40,40,0,0,0,4.3,10.51C653.62,357,662.84,357.05,664.88,365.8Z"/><path class="a" d="M576.88,414.59c9.91,6.91,15.07,10.52,23.47,11.66,1,.13,16.42,2,28.76-7.18,2.46-1.82,4.3-3.2,5.87-5.74,5.63-9.14-1.79-18.09,1.89-23.31,1.8-2.56,6.55-4.63,19.57-2.54,3.65-6.17,10.38-13.32,8.44-21.68-2-8.75-11.26-8.84-18.55-21.16a40,40,0,0,1-4.3-10.51c-2.15-.07-4-1.72-7.24-2-13.81-1.05-21.12,26.47-33.49,25.56-5.16-.38-9.6-5.58-11.07-9.69-2.89-8,4.86-13.84,1.41-21-2.63-5.48-9.6-7.07-10.5-7.27-6.49-1.39-14,1.43-19.65,7.41a9.28,9.28,0,0,1,.45,1.65c1.09,6.52-5.85,7.71-6.82,17.94-.77,8.2,3.45,9.94,1.9,17.94-1.41,7.25-5.24,7.63-5.3,13.27-.1,8.19,7.93,10.76,6.81,16.14a6.82,6.82,0,0,1-1.69,3.15A129.66,129.66,0,0,0,576.88,414.59Z"/><path class="a" d="M520.49,497.28c1.55-1.29,2.22-3.45,1.52-14-1.14-17.25-3.37-18.19-2.65-24.4,1.59-13.82,13.26-14.51,13.06-25.29-.22-11.25-13-15.05-12.11-25.83a15.7,15.7,0,0,1,3.13-7.94,70,70,0,0,1-12.6-9.63c-9.24-8.36-10-13.61-18.92-18.3a36.07,36.07,0,0,0-7.07-2.81,4,4,0,0,1,.07,2.09c-1.77,7.06-15.67,4.69-23.84,13.19-6.47,6.71-6.74,17.52-5.4,23.94,1.42,6.77,4.55,8.2,4,12.11-.49,3.33-3.51,7.31-13.34,11.18,3.32,4.56,5.33,9.48,5.11,13.3a30.27,30.27,0,0,0,.56,9.69c.62,2.72,1.27,3.72,1.71,5.38a12.18,12.18,0,0,1,.29,1.59,191.41,191.41,0,0,0,41.91,29.8C510.2,498.79,517.26,500,520.49,497.28Z"/><path class="a" d="M546.42,451.9c7.19,5.29,11.06,6.1,13.62,6.27,6.23.44,7.29-2.66,13.06-2.51,10.25.28,14.32,10.27,20.06,8.43,3.56-1.14,5.34-6.06,5.49-9.5.31-7.48-7-10.17-8.52-16.86-.68-3-.31-7.21,3.82-13-5.22-1.86-9.91-5.12-17.07-10.12a129.66,129.66,0,0,1-20-17.3c-3.72,4.22-12.58,7-20.26,6.54a30.4,30.4,0,0,1-13.14-4,15.7,15.7,0,0,0-3.13,7.94c-.9,10.78,11.89,14.58,12.11,25.83a12.16,12.16,0,0,1-.59,4.07A75.4,75.4,0,0,0,546.42,451.9Z"/><path class="a" d="M592,471.81c-2,2.25-4.73,2.1-5.39,4.3-1,3.36,3.75,8.94,8.51,9.15,3.59.15,4.14-2.87,8.23-3.5,5.82-.88,8.16,4.69,14.76,5.38,6.12.64,13.91-3.11,14.76-7.53,1.29-6.65-14.15-9.41-16.46-21-1.55-7.75,4.52-10.8,4-20.18a25.21,25.21,0,0,0-5-13.14,45.54,45.54,0,0,1-15,.95,31.71,31.71,0,0,1-6.4-1.54c-4.13,5.81-4.5,10-3.82,13,1.53,6.69,8.84,9.38,8.52,16.86-.14,3.3-1.79,8-5.08,9.34C594.16,467.92,593.29,470.32,592,471.81Z"/><path class="a" d="M201.08,484.72c.26-2.11.23-8.58,4.82-12.64.77-.68,3-2.63,5.68-2.43,3.1.24,3.66,3,6.24,3.5,4.21.75,10.85-5.25,11.36-11.57.41-5.18-3.68-6-4.26-11.84-.78-7.83,6.16-10.06,6-17.21-.24-8.65-10.48-9.89-10.79-17.22-.35-8.4,13-9.11,22.71-25,3.73-6.1,9.58-15.68,6.81-25-.86-2.9-2.84-6.75-2.55-12.64a27.63,27.63,0,0,1,2-8.61c3.69-11.21-3.74-29.93-15.33-34.17-7.74-2.83-10.28,3.36-21.86,2.42-16.59-1.35-20.81-14.83-30.94-13.18-12.2,2-11.54,22.46-23.56,24.21-10.22,1.49-24-11.41-23-20.18.37-3.21,2.67-5.42,1.71-9.68-.65-2.86-2.79-6.73-6-7-1.79-.15-4,.83-4.26,2.15-.39,1.78,3,2.71,3.4,5.12.51,2.83-3.21,6.86-6.81,7.8-6.41,1.67-11-6.82-28.95-22.87-12.25-10.94-22.15-17.73-20.15-22.87.69-1.79,2.22-1.81,3.12-3.5,1.56-2.91,0-8.5-11.85-20a1.85,1.85,0,0,1-.41,1c-1.19,1.48-3.36.48-6,1.14-6.4,1.6-5.51,10.31-12,12.93-4.58,1.85-7.8-1.34-10.43.77-3.56,2.85-.76,11.2,0,13.31C38.48,269,43.59,274.63,61,288c16.77,12.87,25.88,18.27,25.28,25.48a19.86,19.86,0,0,0,.4,9.13c.62,1.94,1.79,5.63,5,7.23,4.26,2.1,7.77-1.6,11.84,0s5.3,7.39,6,11c2.86,14.48-4.84,21.82-.2,27.19,2.86,3.31,8.36,3.48,12.44,3.61,3.33.11,9.31.3,13-3,7.19-6.44.94-21.46,3.81-22.25,1.3-.36,4.14,2.31,4.41,5.13.39,4.13-4.82,7.41-4.28,12.38a2,2,0,0,0,.27.94c1.25,1.95,6.1.45,12.44.19,5.76-.24,8.64-.36,10.43,1.14,4.15,3.48,2.6,14.6-3.61,20.92-4.1,4.16-7.14,3.11-12,8.36-3.47,3.73-6.8,9.47-5,11.6,2,2.42,8.95-1.81,11,.57s-2.54,10.26-6.82,15.22c-5.22,6-9.59,7.63-9,10.26s5,2,9.63,5.33c6.15,4.41,5.07,10.46,9.43,19.78,3.26,7,4.59,5.13,12.84,16.73,11.29,15.87,10.51,21.7,16.78,24.27C197,493.68,200.58,488.71,201.08,484.72Z"/><path class="a" d="M1169.89,1719.94c-7.79-7.87-11.44-5.46-15-10.91-7.31-11.26,7.33-23.07.27-35.49-4.37-7.7-13.75-9.78-13.11-16.49.19-1.93,1.22-4.33,2.68-4.56,2.81-.45,4.89,7.45,8.29,7.35,2.58-.07,5.19-4.69,5.89-9.12,1.35-8.62-5.24-12-10.7-25.87a68.14,68.14,0,0,1-2.36-7.07c-4.85-.37-10,.19-14.36,2.87-9.9,6.06-7.49,17.74-17.59,22.6-4.14,2-6.85,1.13-20.44.27-5.53-.35-10.56-.56-15-.68,3.66,11.31,10.45,19.57,6.76,28.12a15,15,0,0,0-1.71,6.46c0,6.62,5.23,8.27,5.4,12.64.23,6.09-9.76,8.53-24.13,21-7.16,6.21-10.74,9.31-11.35,12.64-2.6,14.08,25.78,29.37,40.59,35.25,9.79,3.88,16.59,6.48,24.69,4.57,11.16-2.62,13.39-11.11,24.7-15.6,5.75-2.28,14.43-3.75,27.25-.14,2.87-1.65,6.76-1.11,8.83-4.25C1183.33,1737.74,1176.4,1726.5,1169.89,1719.94Z"/><path class="a" d="M1152.51,1586.31c-3.43-18.3-8.35-20.17-12.31-36-4.25-17-.46-22.44-7.49-30.43-4.71-5.35-8.86-5.7-10.7-11.41-2-6.13,1.41-10.15-1.34-18.25-1.15-3.4-2.17-4-3.74-7.1-3.19-6.38-2.71-11.53-2.21-16.71a57.11,57.11,0,0,1-16.42,2.49c-10.24,0-14.78-2.79-24.12-2.15a46.16,46.16,0,0,0-20,6.37,61.9,61.9,0,0,1,3,21.08c-.13,2.71-2.27,12.66-6.53,32.55-2.53,11.82-3.34,14.73-2,19.37,2.91,10,10.87,11.13,14.19,22.6,2.15,7.41-.89,7.88,1.14,15.07,3.47,12.26,13,13.14,16.46,23.41,3.39,9.93-4.84,11-4,25.29a41.67,41.67,0,0,0,2,10.35c4.43.12,9.46.33,15,.68,13.59.86,16.3,1.72,20.44-.27,10.1-4.86,7.69-16.54,17.59-22.6,4.39-2.68,9.51-3.24,14.36-2.87-2.19-8-2.48-14.8-.32-15.75,1.75-.76,4.1,2.8,6.15,2C1155.48,1602.65,1152.93,1588.57,1152.51,1586.31Z"/><path class="a" d="M1098.3,1468.9a57.11,57.11,0,0,0,16.42-2.49,38.36,38.36,0,0,0,.07-10.17c-1.68-10.52-8.68-9-18.19-24.59-5.23-8.6-14.06-23.12-11-39.05,1.7-8.73,7.15-18.8,3.21-21.81-1.45-1.11-3.09-.41-5.08-2-2.77-2.24-2.19-5.65-2.94-9.64-1-5.25-4.58-13.08-10.17-15-2.75-.92-5.51-.24-8,.63,1.29,2.68,2,5.6.73,7.88-2,3.55-7.05,2.06-16.46,5.38-9.65,3.4-11.25,7.4-17,6.72-5-.58-5.27-3.73-9.65-4.57-10.54-2-27.67,12.56-26.68,25,.48,6.13,5.18,9.57,3.12,15.87-.24.72-1.88,5.51-5.68,6.46l-.22,0c2.5,5.51,5.73,8.49,8.74,10.18,5.2,2.93,10.25,2.33,13.05,6.73,2.91,4.57-.36,8.59,2.56,12.65s8.7,3.73,12.77,4.57c11.38,2.35,21.46,16,26.28,31.39a46.16,46.16,0,0,1,20-6.37C1083.52,1466.11,1088.06,1468.94,1098.3,1468.9Z"/><path class="a" d="M912.1,1537.24c17.89-11.64,24.28-1.17,56.49-12.64,23-8.2,47.48-23.43,45.7-35.52-.92-6.24-8.63-10.16-6.53-14.53,1.49-3.08,7-4.46,11.07-3.76,3.68.63,5.56,2.8,7.09,3.76,3.43,2.17,10.43,1.7,25.74-8.26-5.37-12.44-14.09-22.56-23.75-24.56-4.07-.84-9.89-.57-12.77-4.57s.35-8.08-2.56-12.65c-2.8-4.4-7.85-3.8-13.05-6.73-3-1.69-6.24-4.67-8.74-10.18-3.67.75-5.56-3-9.14-2.73-6.72.55-6.94,14.42-13.91,15.87-5.46,1.15-13.33-5.67-14.2-12.37-.54-4.22,2.1-5.18,2.28-9.69.32-8.29-8.09-17.93-17.6-20.18-8.87-2.09-11.88,3.85-19.87,1.35-8.73-2.74-8.75-10.95-16.75-13.45-3.36-1.06-8.47-1.19-16.13,2.9,1,2.37,1.4,4,1.28,5.3-.49,5-3.81,5.05-6.62,12.36-3,7.7-.08,9.74-2.81,13.31-5.37,7-18.85,2.15-21.67,7.8-1.76,3.54,1.86,8.84,4.42,11.41,6.13,6.14,13.53,4,15.25,8,1.81,4.25-6.14,7.58-9.63,17.5-2.66,7.54.71,9.13.2,23.2-.41,11.34-.7,19.3-6.22,25.48-6.95,7.77-14.82,4.48-18.46,11.22-4.37,8.08,5.94,14.69,1.81,25.86-2.7,7.29-8.53,8.34-8.23,14.64.21,4.44,3.14,4.87,5,12.18,1.72,6.69-.12,8.79,2.2,11.21,3.67,3.83,9.68.09,13.44,3.62,1.22,1.13,1.46,2.35,1.47,7.11a72.31,72.31,0,0,0,16.3-5.92C894.64,1562.67,894.57,1548.66,912.1,1537.24Z"/><path class="a" d="M920.34,1672.31c22.9-1.27,28.74-3.63,45.41-2.52,18,1.2,42.36,2.82,51.09,17.22,4.45,7.35,1.48,12.45,9.08,25.47,3.47,5.94,6.69,11.28,13.25,14a24.19,24.19,0,0,0,14.31,1,10.33,10.33,0,0,1,0-3.76c.61-3.33,4.19-6.43,11.35-12.64,14.37-12.46,24.36-14.9,24.13-21-.17-4.37-5.42-6-5.4-12.64a15,15,0,0,1,1.71-6.46c4.72-11-7.76-21.43-8.8-38.47-.87-14.27,7.36-15.36,4-25.29-3.5-10.27-13-11.15-16.46-23.41-2-7.19,1-7.66-1.14-15.07-3.32-11.47-11.28-12.62-14.19-22.6-1.35-4.64-.54-7.55,2-19.37,4.26-19.89,6.4-29.84,6.53-32.55a65,65,0,0,0-5.49-27.91c-15.31,10-22.31,10.43-25.74,8.26-1.53-1-3.41-3.13-7.09-3.76-4.12-.7-9.58.68-11.07,3.76-2.1,4.37,5.61,8.29,6.53,14.53,1.78,12.09-22.69,27.32-45.7,35.52-32.21,11.47-38.6,1-56.49,12.64-17.53,11.42-17.46,25.43-38.88,36.32a72.31,72.31,0,0,1-16.3,5.92c0,2.28,0,5.35-.06,9.62-.06,10.14.12,12.05,1.6,14.26,2.59,3.85,5.26,2.82,8.63,7s1.59,6.26,4.41,12.93c3.65,8.65,9,10.89,7.63,13.88s-8.38,3.49-10.64,3.62c-5.39.3-7-1.29-9,0-3.68,2.32-3.82,10.87,0,13.5,1.69,1.16,3,.4,9.43.19,7.06-.23,11.64-.39,13.64,1.9,1.64,1.88,1,4.86-.4,9.32-.8,2.44-1.63,4.65-2.48,6.7A392.3,392.3,0,0,0,920.34,1672.31Z"/><path class="a" d="M891.19,1802.88c9.61,1,12.79,7.48,22.33,12.92,10.83,6.17,13.33,1.61,20.82,7.17,5.53,4.11,5,7.25,13.62,22.24,11,19.15,14.9,19.48,16.28,19.38,4.87-.38,6-8.4,12.49-9,4.23-.38,4.92,2.9,9.08,2.87,8.55-.06,12.07-14,19.68-13.28,3,.27,3.12,2.52,6,2.52,6.31,0,7.72-10.34,14.38-11.48,5.58-1,7.41,5.79,14.76,6.45,9.55.87,20.63-9.22,19.68-16.14-.54-4-4.79-4.69-4.92-9s3.93-9.08,8.71-10.4c6.31-1.74,9.32,3.91,16.27,2.51,5.22-1,9.9-5.51,10.6-10s-3-7-3.79-10.41c-1.11-5.14,4.56-12.92,27.55-25.15-6.49.41-12.57-1.92-20.73-5.16-13.5-5.36-38.26-18.54-40.57-31.49a24.19,24.19,0,0,1-14.31-1c-6.56-2.71-9.78-8-13.25-14-7.6-13-4.63-18.12-9.08-25.47-8.73-14.4-33.07-16-51.09-17.22-16.67-1.11-22.51,1.25-45.41,2.52a392.3,392.3,0,0,1-40.68.13c-3.24,7.82-6.84,13.3-10.16,20.3a77.07,77.07,0,0,0-6.22,16.93c-2.22,9.66-4.21,18.36-.2,26.81s11.16,10.2,11.23,18.07c0,3.15-1.1,3.68-1.4,9.12-.25,4.43.31,7.68,1.2,12.74,1.78,10.1,3.8,13.59,1.41,17.31-1.16,1.79-1.95,1.48-3.62,3.23a9.92,9.92,0,0,0-1.65,2.32,40.51,40.51,0,0,0,14.51,3.61C888.34,1803.08,888.46,1802.6,891.19,1802.88Z"/><path class="a" d="M1183.27,1777.24c-1.6-4.48-5.33-4.14-9.9-9.64-3.88-4.66-7.79-12.81-4.81-17.75a5.86,5.86,0,0,1,2.13-2.08c-12.82-3.61-21.5-2.14-27.25.14-11.31,4.49-13.54,13-24.7,15.6a24.31,24.31,0,0,1-4,.59c-23,12.23-28.66,20-27.55,25.15.74,3.42,4.5,5.8,3.79,10.41s-5.38,9-10.6,10c-7,1.4-10-4.25-16.27-2.51-4.78,1.32-8.83,6.14-8.71,10.4s4.38,5,4.92,9a9.16,9.16,0,0,1-1.26,5.44,14.5,14.5,0,0,1,5.05,6.94c2,6.36-2.72,10.67,0,15.06,2.55,4.12,7.89,2.34,14,5.92,7.9,4.64,4.56,10.89,11.54,19.73,10.21,12.93,25.6,10.06,31.23,23.5,1.4,3.35.59,3.87,1.89,6.28,3.59,6.62,13.27,9.19,24.26,9.83a11.56,11.56,0,0,1-3.93-4.85c-1.14-3,.31-3.9-.8-8.37-.63-2.51-1.42-5.7-3.48-6.34-3.62-1.12-7.77,6.75-9.89,5.84s-1.43-10.17,4.28-15.47c2.35-2.19,5.7-3.84,6.68-3s-.93,2.8,0,4.81c1.11,2.38,5.63,3.75,8.56,2.54,4.32-1.79,5.4-9.28,3.75-14.71-1.87-6.12-6-5.53-9.36-12.17-3.12-6.14,0-7.52-2.68-19-1.69-7.37-4.08-11.66-2.14-13.19s5.58,1.78,8.83,0c2.41-1.32,3.83-5,2.94-7.86-1.88-6-13.55-6.41-13.37-9.63.07-1.26,1.9-2.45,3.47-2.54,3.27-.19,3.92,5,8.3,6.09,5.43,1.32,12-.81,13.91-4.82,1.17-2.45.58-5.53-4.28-13.19-10.74-16.9-18.47-18.63-18.19-25.35.35-8.62,13.55-17.17,19.79-15,1.91.68,4,2.65,3.75,4.31-.31,2.29-4.73,2.29-5.62,4.82-.26.74-.65,2.9,6.15,9.13,7.38,6.75,11.33,10.37,15,9.12C1182.75,1789,1185,1782.2,1183.27,1777.24Z"/><path class="a" d="M1147.07,1919.26c-11-.64-20.67-3.21-24.26-9.83-1.3-2.41-.49-2.93-1.89-6.28-5.63-13.44-21-10.57-31.23-23.5-7-8.84-3.64-15.09-11.54-19.73-6.11-3.58-11.45-1.8-14-5.92-.05-.08-.08-.16-.13-.25-2.8,3.18-5.24,7.23-5.45,12-.26,5.74,3,7.2,4,12.92,2.21,12.35-10.76,16.65-10.5,29.32.23,11.41,10.83,13.13,9.93,23.14-1.1,12.31-18,19.44-15.89,23.14,1.59,2.77,10.68-1.91,16.46,2.69,4.59,3.65,1.28,8.53,5.39,13.45,6.41,7.67,19.59,2,25.83,8.88,1.66,1.83,3.13,4.9,2.67,10.39a1.5,1.5,0,0,0,.44.8c2.26,2.15,11-.5,15.24-6.09,1.72-2.24,2.48-4.64,3-14.71.76-16.53-.78-21.32,2.67-23.83,3.94-2.87,8,1.9,13.38-1,6.42-3.48,3.33-11.72,11.5-17.75,3.11-2.3,6-2.92,6.15-5.07C1148.83,1920.87,1148.08,1920.12,1147.07,1919.26Z"/><path class="a" d="M1093.76,1979.29c-6.24-6.91-19.42-1.21-25.83-8.88-4.11-4.92-.8-9.8-5.39-13.45s-11.67-1.32-14.91-1.82c-1.47,3-3.75,6.08-7.32,7.38-9.4,3.43-17.89-9-28.77-5.74-6.38,1.9-11.54,8.56-11.73,14.35-.17,5.24,3.83,6.86,3.41,11.48-.55,6-8,10-14.38,13.27-15.61,8-33.9,10.69-35.2,7.54-.77-1.87,5.25-3.73,4.92-7.18-.66-6.82-25.71-15.6-42-8.25-3.38,1.52-6.18,3.65-11,3.59-7.1-.09-9-4.85-15.52-5-6.16-.17-12.21,3.8-15.14,8.25-3.78,5.74-.32,9.18-2.27,17.57-3,13-13.51,14.4-12.87,21.53,1,10.68,24.87,11.25,27.25,23.32,1.65,8.36-9,12.39-11,24-1.53,8.9,2.83,17.4,8.24,24.32a75.38,75.38,0,0,1,9.54-5.82c9.27-4.81,11-3.7,19.79-9.13,7.64-4.74,9.38-7.52,14.72-8.12,7.83-.87,10.66,4.38,16.85,2.54s9.09-8.67,10.16-11.16c3.79-8.73-.28-13.13,3.21-16.48,5.9-5.65,21.61,2.92,24.88-1.77,2-2.81-2.92-7-.8-9.89,3-4.2,15,1.86,20.33-3.55,2.17-2.2.72-3.74,2.94-6.59,4.09-5.25,11-2.62,18.19-5.83,10.77-4.83,6.65-16,17.12-21.56,9.51-5.08,17.43,1.71,24.07-4,5.69-4.93,1.43-11.22,7.49-16.74,7-6.33,20.87-5.54,23.27-1.26.75,1.32.15,2.53.37,3.51C1096.89,1984.19,1095.42,1981.12,1093.76,1979.29Z"/><path class="a" d="M823.83,1842.35c1.17,4.87-2.73,6.82-4.16,14.34-2,10.49,2.74,21.58,9.08,28.34s9.74,4.46,14.38,10.41c8.31,10.65.11,21.58,6.43,26.54,7.29,5.73,28.65-.59,38.23-13.27,4.27-5.66,5.55-11.73,9.46-11.84,4.72-.13,6,8.64,13.62,10.41,5.18,1.2,6.72-2.39,12.49-2.52,12.26-.26,16.18,15.73,27.25,15.79,6.9,0,14.94-6.13,15.52-12.2,1-10.33-20.14-15.54-19.68-28.7.14-4.08,2.31-7.41,3.78-9.68a27.86,27.86,0,0,1,8.83-8.49c-2.5-2.64-6-7.46-11.1-16.27-8.59-15-8.09-18.13-13.62-22.24-7.49-5.56-10-1-20.82-7.17-9.54-5.44-12.72-11.9-22.33-12.92-2.73-.28-2.85.2-6.43,0a40.51,40.51,0,0,1-14.51-3.61c-3,6,1.29,13.43-2,21.83-2.79,7.22-10.51,13.44-15.64,12.36-4.89-1-4.47-8-10.64-10.65-3.74-1.57-8.3-.83-15.85,2.67a73,73,0,0,0-12.39,7.25C818.42,1834.85,822.77,1837.93,823.83,1842.35Z"/><path class="a" d="M1064,1853.75c-2.4-4.3,2-8.57.13-14.81a14.5,14.5,0,0,0-5.05-6.94c-3.12,5.76-11.21,11.36-18.42,10.7s-9.18-7.41-14.76-6.45c-6.66,1.14-8.07,11.48-14.38,11.48-2.93,0-3-2.25-6-2.52-7.61-.67-11.13,13.22-19.68,13.28-4.16,0-4.85-3.25-9.08-2.87-6.53.57-7.62,8.59-12.49,9-.75.05-2.24,0-5.18-3.11a27.86,27.86,0,0,0-8.83,8.49c-1.47,2.27-3.64,5.6-3.78,9.68-.46,13.16,20.66,18.37,19.68,28.7-.58,6.07-8.62,12.24-15.52,12.2-11.07-.06-15-16-27.25-15.79-5.77.13-7.31,3.72-12.49,2.52-7.57-1.77-8.9-10.54-13.62-10.41-3.91.11-5.19,6.18-9.46,11.84-9.58,12.68-30.94,19-38.23,13.27a6.3,6.3,0,0,1-1.46-1.61c-6.34,2.82-11.25,7.38-13.67,13.09-1,2.3-3.18,7.51-1.14,12.92,5.06,13.39,30.78,13.88,30.65,20.8-.05,3-4.71,3.63-4.92,6.46-.22,3,4.84,7.44,26,13.68a15.07,15.07,0,0,1,5.07-.76c6.56.17,8.42,4.93,15.52,5,4.79.06,7.59-2.07,11-3.59,16.3-7.35,41.35,1.43,42,8.25.33,3.45-5.69,5.31-4.92,7.18,1.3,3.15,19.59.5,35.2-7.54,6.4-3.3,13.83-7.24,14.38-13.27.42-4.62-3.58-6.24-3.41-11.48.19-5.79,5.35-12.45,11.73-14.35,10.88-3.23,19.37,9.17,28.77,5.74,3.57-1.3,5.85-4.38,7.32-7.38a2,2,0,0,1-1.55-.87c-2.13-3.7,14.79-10.83,15.89-23.14.9-10-9.7-11.73-9.93-23.14-.26-12.67,12.71-17,10.5-29.32-1-5.72-4.23-7.18-4-12.92C1058.78,1861,1061.22,1856.93,1064,1853.75Z"/><path class="a" d="M700.07,1957.86c5.72,6.88,14.9,2.61,20.44,9.32,6.12,7.43-.25,18.55,4.92,21.17,3.79,1.92,7.92-3.68,14.76-1.44,2.81.93,4.17,2.55,7.95,2.87,2.74.24,4.22-.43,6.05-.71,8.46-1.33,11.73,7.45,20.44,7.17,4.13-.13,3.35-2.1,12.87-4.66,6.06-1.63,7.3-1.08,9.46-2.51,5.4-3.58,4.43-11.51,5.3-15.79,1.31-6.48,8.84-14.34,35.25-21a14.84,14.84,0,0,1-4.22-5.86c-2-5.41.16-10.62,1.14-12.92,2.42-5.71,7.33-10.27,13.67-13.09-3.41-5.48,2.53-15.32-5-24.93-4.64-6-8.09-3.69-14.38-10.41s-11.08-17.85-9.08-28.34c1.43-7.52,5.33-9.47,4.16-14.34-1.06-4.42-5.41-7.5-10.06-9.62-5,3.57-9.46,7.64-15.09,12.52-21.07,18.28-28.1,22-31.5,20.16-2.44-1.35-1.19-4.6-4.41-6.65-4.29-2.73-12.66-.9-17.06,3.8-5,5.4-1.69,11.22-6.42,15-1.91,1.54-4.29,2.06-14.44,1.33-19.58-1.39-25-4.31-30.09-.76-3.62,2.51-6,7.42-4.62,10.27,1.22,2.58,4.82,2.13,6,4.75s-1.84,5.18-4,10.08c-3.07,7-1.74,13.17-2,16.66a41.43,41.43,0,0,1,7.26,18.22C698.61,1947.31,695.75,1952.65,700.07,1957.86Z"/><path class="a" d="M876,2081.69c-7.17-8.28-12-9.62-15.27-9-8.68,1.56-10.4,17.67-19.87,18.12-3.94.18-8.22-2.38-8.14-3.95.08-1.38,3.49-1.46,4.17-3.59s-1.72-5.11-4.36-6.45c-4.13-2.11-9.75-.62-13.43,1.79-7.05,4.6-6.88,12.43-11.36,12.74-2.4.16-2.77-2.07-6-2.69-5.61-1.06-13.48,3.77-14.76,9.5-1.08,4.82,3.24,7,2.65,13.27a14.63,14.63,0,0,1-2,6.05,12.5,12.5,0,0,1,4.64,7.42c.79,5.42-4.35,7.74-2.94,11.41,1.79,4.66,12.46,7.06,19.79,4.05,4-1.63,3.9-3.59,8.56-5.32,5.79-2.15,7.74.2,12.84-1.27,7.49-2.15,7.24-8.33,14.72-11.66,5.69-2.54,8,.07,15.24-.76,10.65-1.23,12.83-7.77,23.9-15.73C879,2098.78,874.69,2090.43,876,2081.69Z"/><path class="a" d="M887,2057.23c-2.38-12.07-26.28-12.64-27.25-23.32-.64-7.13,9.86-8.57,12.87-21.53,2-8.39-1.51-11.83,2.27-17.57a19.53,19.53,0,0,1,10.07-7.49c-21.13-6.24-26.19-10.63-26-13.68.21-2.83,4.87-3.51,4.92-6.46.11-5.73-17.49-7.06-26.43-14.94-26.41,6.7-33.94,14.56-35.25,21-.87,4.28.1,12.21-5.3,15.79-2.16,1.43-3.4.88-9.46,2.51-9.52,2.56-8.74,4.53-12.87,4.66-.37,0-.73,0-1.08,0a38,38,0,0,1,6.85,16.44c.62,4.06,1.23,8.13-.57,12.65-4.43,11.12-17.52,9.86-20.15,18.29-2.74,8.81,10.19,14.47,7.66,24-2.48,9.32-16.65,10.07-16.74,16.95-.09,6.2,11.39,7.6,15.89,16.14,3,5.63,3,14.58-6.42,29.52l2.43.79c10,3.33,12.25,4.69,15,3.55a7.53,7.53,0,0,0,4.55-6.59c-.09-2.38-2-2.91-2.68-6.08-.52-2.34-.4-6,1.34-6.85,1.44-.71,4.33.38,6.86,2.47a14.63,14.63,0,0,0,2-6.05c.59-6.27-3.73-8.45-2.65-13.27,1.28-5.73,9.15-10.56,14.76-9.5,3.28.62,3.65,2.85,6,2.69,4.48-.31,4.31-8.14,11.36-12.74,3.68-2.41,9.3-3.9,13.43-1.79,2.64,1.34,5,4.34,4.36,6.45s-4.09,2.21-4.17,3.59c-.08,1.57,4.2,4.13,8.14,3.95,9.47-.45,11.19-16.56,19.87-18.12,3.25-.58,8.1.76,15.27,9,0-.14,0-.29.06-.43C878.05,2069.62,888.68,2065.59,887,2057.23Z"/><path class="a" d="M654.66,2039c3.53,1.09,6.55-5.86,13.34-6.19,5.28-.25,6.55,3.8,11.35,3.77,6.54,0,14.15-7.61,15-15.07,1.4-11.63-14.32-16.19-17-27.71-1.85-7.84,2.28-19.11,23-35.63l-.3-.33c-4.32-5.21-1.46-10.55-2.65-19.73a41.43,41.43,0,0,0-7.26-18.22c-.1,1.39-.45,2.35-1.42,2.74-1.88.75-3.07-1.79-7.22-1.71s-5,2.52-8,2.47c-4.15-.07-5-4.79-9.83-8.18-6.25-4.38-10.56-.48-21.06-3.23-11.73-3.07-14.68-10.11-18.66-8.37-6.29,2.77-1.17,21.36-7.22,23.39-2.31.78-3.57-1.74-7.83-2.28-8.57-1.08-19.55,7.11-19.06,13.5.42,5.39,8.6,4.71,13.44,13.89.43.79,5.05,9.85,1.41,17.87-1.32,2.91-2.45,2.87-3.41,5.9-2.15,6.75,1.5,13.18,1.8,13.69,2.62,4.45,4.9,3.75,7,8.37,1.71,3.72.85,5.54,2.8,7.22,2.58,2.22,5.39.2,9.43,1.14,8.93,2.09,8.52,15.07,17.06,16.93,4.41,1,6.56-2.08,10-.19,4.19,2.27,5.69,9.2,3.41,11.22a2.27,2.27,0,0,1-1.1.51C652.5,2037.7,653.65,2038.71,654.66,2039Z"/><path class="a" d="M780.4,2012.65a38,38,0,0,0-6.85-16.44c-7.91-.45-11.27-8.41-19.36-7.14-1.83.28-3.31,1-6.05.71-3.78-.32-5.14-1.94-7.95-2.87-6.84-2.24-11,3.36-14.76,1.44-5.17-2.62,1.2-13.74-4.92-21.17-5.44-6.6-14.41-2.59-20.14-9-20.72,16.52-24.85,27.79-23,35.63,2.42,10.29,15.21,15,16.92,24.21,5.2-1,8.49-.09,10.61,1.08,7.13,3.94,5.31,13.21,14.76,19.64,3.66,2.5,4.25,1.32,8,4,7.75,5.71,7,12.28,11.35,14.53,3.06,1.58,8.86,1.1,20.9-8.16a8.53,8.53,0,0,1-.18-5.57c2.63-8.43,15.72-7.17,20.15-18.29C781.63,2020.78,781,2016.71,780.4,2012.65Z"/><path class="a" d="M709.72,2056c.85,10.14-9.64,15.78-6.24,23.68,3.11,7.23,15.57,11,26.4,14.26,7.69,2.32,11.07,2.3,13.62,5.65,3.9,5.12,0,10.5,1.7,17.75.75,3.25,2.7,7.2,7.51,11.34.81-.32,2.66,0,7.36,1.5,9.43-14.94,9.39-23.89,6.42-29.52-4.5-8.54-16-9.94-15.89-16.14.09-6.88,14.26-7.63,16.74-16.95,2-7.34-5.35-12.39-7.48-18.38-12,9.26-17.84,9.74-20.9,8.16-4.34-2.25-3.6-8.82-11.35-14.53-3.7-2.72-4.29-1.54-8-4-9.45-6.43-7.63-15.7-14.76-19.64-2.12-1.17-5.41-2.07-10.61-1.08a11.6,11.6,0,0,1,.11,3.5c-.54,4.47-3.49,9-7.16,11.86C704.68,2042,709.22,2050,709.72,2056Z"/><path class="a" d="M581.71,2074.8c7.8,9,3.56,12.71,11.35,22.07,6.47,7.75,18.47,16.12,30.94,15.06,10.67-.9,10.44-7.76,21.29-9.95,12.88-2.61,25.18,4.62,45.7,16.68,14.39,8.46,15.4,11.17,21.57,12.11,11.58,1.76,23-5.51,32.46-14.42-1.14-6.77,2.21-11.9-1.52-16.79-2.55-3.35-5.93-3.33-13.62-5.65-10.83-3.27-23.29-7-26.4-14.26-3.4-7.9,7.09-13.54,6.24-23.68-.5-6-5-13.94-22.48-22.58a13.4,13.4,0,0,1-7.89,3.21c-4.8,0-6.07-4-11.35-3.77-6.79.33-9.81,7.28-13.34,6.19-1-.31-2.16-1.32-2.93-4.23-2.07.41-5-1.4-6.73.06s-.67,4.75,1.61,13.31c3.15,11.88,3.31,13.64,2.21,14.64-2.21,2-8.52.12-12.44-3-4.29-3.45-2.91-6.15-7.23-9.13-.4-.27-5.6-3.75-11.83-2.85-3.89.56-5.73,2.47-7.22,1.52-1.76-1.11-.21-4.35-.81-7.23-1.45-7-15.77-12.68-28.89-12-13.61.73-13.8,7.68-29.69,8.94l-.62,0a32.18,32.18,0,0,0,6.36,17.17C564,2065.9,572.65,2064.34,581.71,2074.8Z"/><path class="a" d="M753.14,2150.47c3.13-3.86,3.44-10.56,1.6-15.47-1.24-3.32-3.19-5.11-2.4-6.09a.85.85,0,0,1,.37-.26c-4.81-4.14-6.76-8.09-7.51-11.34-.07-.32-.12-.64-.18-1-9.45,8.91-20.88,16.18-32.46,14.42-6.17-.94-7.18-3.65-21.57-12.11-20.52-12.06-32.82-19.29-45.7-16.68-10.85,2.19-10.62,9.05-21.29,9.95a28.91,28.91,0,0,1-12.14-1.73c-1.83,1.57-3,3.13-2.62,4.42.65,2.26,5.36,1.77,6,3.77,1.12,3.69-14.42,7.25-19.87,19.64-1.25,2.86-2.73,6.23-1.13,8.61,3.9,5.79,18.88-5,36.33,1.08,7.62,2.64,12.51,7.38,20.15,5.65a19.39,19.39,0,0,0,7.1-3.5c9.51-6.27,23.22-3.44,35.76-1.08,13.28,2.5,27.63,4.93,44.65,7.68C738.57,2154.87,748.55,2156.11,753.14,2150.47Z"/><path class="a" d="M751.8,2163.4c-3.73-5.77-13.67-5.14-13.64-6.85,0,0,0-.05,0-.08-17-2.75-31.37-5.18-44.65-7.68-12.54-2.36-26.25-5.19-35.76,1.08a19.39,19.39,0,0,1-7.1,3.5c-6.78,1.53-11.4-2-17.68-4.7a16.58,16.58,0,0,0,.28,6.13c2.37,9.87,13.09,12.66,25.16,21.35,14.29,10.27,11.2,14.95,27.44,29.59a135.38,135.38,0,0,0,23.47,16.91,5.6,5.6,0,0,1,2.59-1.19c2.63-.38,3.68,2,6.69,2.79,6.74,1.72,17.49-6.21,16.85-12.17-.61-5.72-11.61-8.74-10.7-11.16.57-1.5,4.74-.11,7-2.53,2.79-3-1.06-8.21,1.34-10.4,2.22-2,6.2,1.82,11,.26,6.67-2.2,8.22-12.84,8.56-15.22C753.16,2169.21,753.6,2166.18,751.8,2163.4Z"/><path class="a" d="M717,2236.17c-3.3-4.31-9.7-3.67-10.44-7.61-.38-2,.92-4.48,2.76-5.91a135.38,135.38,0,0,1-23.47-16.91c-12.62-11.37-13.57-16.74-20.07-23.38-5.79,9.33-13.8,18.08-25.06,23.74s-20.56,5.73-21.86,11.3c-1.56,6.71,10.76,12.15,25.27,28a127.5,127.5,0,0,1,14.08,18.5c5.57.09,20.65,2.46,25.08,4.74,7.49,3.86,18.95,0,25.68-5.83C717.5,2255.5,721.79,2242.38,717,2236.17Z"/><path class="a" d="M500.63,2061.17c1.91,8.68,7.3,9.82,14.38,23,6.73,12.5,3.58,14.69,9.08,20.81,9.25,10.3,20.36,6.56,24.6,14.71,4.13,7.93-5.62,13-4.16,26.18,1.55,14,14.85,28,26.49,28.34,4.33.15,6.14-1.66,12.87-1.07,8.36.73,9.91,3.91,14.76,3.23,6.9-1,13-8.7,14-16.51a19.61,19.61,0,0,0-3.18-13.13c-7.52,1.28-13.1,3.17-15.27-.05-1.6-2.38-.12-5.75,1.13-8.61,5.45-12.39,21-16,19.87-19.64-.6-2-5.31-1.51-6-3.77-.37-1.29.79-2.85,2.62-4.42a45.6,45.6,0,0,1-18.8-13.33c-7.79-9.36-3.55-13.06-11.35-22.07-9.06-10.46-17.76-8.9-25.26-18.56a32.18,32.18,0,0,1-6.36-17.17c-10.37.7-13.52-2.11-20.24,1.1-7.24,3.46-11.13,10.33-15.45,8.94-1.35-.43-1.31-1.21-2.81-2.47-2.63-2.22-5.67-2.28-9.15-2C499.6,2051.83,499.77,2057.3,500.63,2061.17Z"/><path class="a" d="M427.73,2123.5c5.93,9.69,13.82,8.76,31.5,19.64,20.53,12.63,25.67,23.6,35.34,21.39,7.14-1.63,9.86-8.85,17.17-7.94,5.37.68,6.31,4.88,11.07,4.71s6.75-4.43,13.77-10.36a65.67,65.67,0,0,1,7.9-5.7c-1.1-12.7,8.27-17.78,4.21-25.59-4.24-8.15-15.35-4.41-24.6-14.71-5.5-6.12-2.35-8.31-9.08-20.81-7.08-13.14-12.47-14.28-14.38-23-.86-3.87-1-9.34,1.81-16.51-4.06.36-8.73,1.2-14.12-.3-7.36-2.06-7.71-6.17-12.24-5.52-5.85.84-11.11,8.53-10.23,14.83.44,3.19,2.1,3.42,4.61,8.56,1.92,3.92,5.91,12.06,2.81,16.16-3.29,4.37-11.52.07-17.85,5.71-1.86,1.66-1.35,2.21-4.42,7.42-4.46,7.58-7.39,12.56-12,14.83-3.83,1.87-6.05.54-15.37-.86A30.91,30.91,0,0,0,427.73,2123.5Z"/><path class="a" d="M597.75,2196.82a94.21,94.21,0,0,1,22.2,18.5c3-3.63,11.26-4.42,20.8-9.22,11.26-5.66,19.27-14.41,25.06-23.74a54.24,54.24,0,0,0-7.37-6.21c-12.07-8.69-22.79-11.48-25.16-21.35a16.58,16.58,0,0,1-.28-6.13c-.8-.33-1.61-.66-2.47-1-7.76-2.7-15-2.06-21.06-1a19.61,19.61,0,0,1,3.18,13.13c-1,7.81-7.1,15.54-14,16.51-4.85.68-6.4-2.5-14.76-3.23a24.47,24.47,0,0,0-7.95.49,35.31,35.31,0,0,0,3.93,8.16C585.32,2190.12,592.9,2194,597.75,2196.82Z"/><path class="a" d="M524.09,2183.14c11,13.44,15,30.09,21.19,29.42,5-.55,5.73-11.79,13.25-12.92,3.43-.51,5.75,1.45,8.33,2.51,4.84,2,12.88,1.73,27-7.58-4.48-2.69-9.88-6.43-14-12.82a35.31,35.31,0,0,1-3.93-8.16,18.76,18.76,0,0,1-4.92.58c-11.64-.38-24.94-14.3-26.49-28.34a5.87,5.87,0,0,1,0-.59,65.67,65.67,0,0,0-7.9,5.7c-7,5.93-9,10.2-13.77,10.36s-5.7-4-11.07-4.71c-6.32-.79-9.21,4.49-14.49,7C506.43,2167.57,516.27,2173.62,524.09,2183.14Z"/><path class="a" d="M507.91,2328c-4.26-5.44-6.75-9.65-6.24-14.53.64-6.21,5.64-8.76,4.82-13.45-.77-4.43-6.05-7-11.35-9.42-23-10.62-34.53-15.93-43.43-16.41A73.34,73.34,0,0,0,431,2276c-.29,2-.67,4.21-1.22,6.59-1.22,5.32-1.42,4-2.61,9.13-4.66,20.31,2.32,24.1-1.81,40.5-1.48,5.89-3.67,10.56-1.2,15.6,1.75,3.57,4.45,4.51,4.82,8,.39,3.81-2.59,5.2-5,10.27-3.46,7.23-3.59,17.3,1,20.16,1.94,1.2,4.31.88,6.62.57,7-1,10.29-5.68,12-4.56,1.14.72,1.17,3.61-.2,5.51-2.81,3.89-9.82,1.32-12.24,5.14-1.08,1.7.18,2.43-.8,4.94-1.28,3.27-4.2,4.06-8.83,7.23-2.46,1.69-9.52,6.52-8.62,8.93.64,1.72,4.65.44,12.43,2.67,4.66,1.33,5.13,2.33,8.63,2.85a24.07,24.07,0,0,0,10.83-1.14c24.48-7.33,28.13-5,36.92-11.41s6.63-9.87,14.64-13.5c7.68-3.49,15.53-3,18.26-8.37a8.57,8.57,0,0,0,.8-4.56c-.29-6.1,4.65-18.73,13.7-30.7A164.25,164.25,0,0,1,507.91,2328Z"/><path class="a" d="M597.32,2308.88c1.27-4.9,3.3-7.07,2-10-2.61-5.73-14.63-5.91-15.9-5.92-6.19,0-6.52,1.84-10.78,1.62-11.79-.62-24.27-15.69-21.57-24.22.74-2.35,2.82-4.81,2-8.34a7.74,7.74,0,0,0-2.84-4.57c-5.26-3.59-12.62,5-24.12,3.23-4.74-.74-5.26-2.47-9.37-2.16-5.58.43-11.87,4.19-12.21,8.35-.27,3.45,3.71,5.18,2.84,8.6-.53,2.12-2.49,3.18-3.69,4-2.43,1.76-5,5.12-6.22,12.11,4.45,2.15,8.4,4.56,9.06,8.34.82,4.69-4.18,7.24-4.82,13.45-.51,4.88,2,9.09,6.24,14.53a164.25,164.25,0,0,0,21.19,21.89,80,80,0,0,1,19.14-18.37c17.44-11.59,22.78-3.09,48.29-13.38A28.45,28.45,0,0,1,597.32,2308.88Z"/><path class="a" d="M514.44,2249.15c2.69-9.49,14.78-10.68,23.56-20.18,3.13-3.39,6.48-8.56,8.2-16.65a3.46,3.46,0,0,1-.92.24c-6.14.67-10.15-16-21.19-29.42-7.82-9.52-17.66-15.57-26.84-19.55a13,13,0,0,1-2.68.94c-9.67,2.21-14.81-8.76-35.34-21.39-17.68-10.88-25.57-9.95-31.5-19.64a30.91,30.91,0,0,1-4.13-18c-1.5-.22-3.18-.45-5.1-.66-12-1.36-18.05-2-22.07-.38-10.34,4.25-9.23,14.6-20.26,17.49-3.59.95-9,1.24-9.43,3.43-.25,1.34,1.59,2.4,1.61,5.13,0,1.65-.66,2.4-.8,3.23-.69,3.86,10,7.77,16.65,12.17,13.74,9.17,14.6,23.83,19.86,23,4.19-.65,3.76-10,9.63-11.41,3.73-.91,7.5,2,10.83,4.57,9.71,7.48,7.8,13.57,14.85,17.11,6.37,3.21,9.52-1,17.85,2.28.69.27,12,4.83,12.64,11.79.85,8.65-15.7,10.41-27.68,27.39a62.34,62.34,0,0,0-10.44,28.14c-1,9.45.8,16.09-.78,27.26a73.34,73.34,0,0,1,20.75-1.87c8.9.48,20.41,5.79,43.43,16.41l2.29,1.08c1.19-7,3.79-10.35,6.22-12.11,1.2-.86,3.16-1.92,3.69-4,.87-3.42-3.11-5.15-2.84-8.6.31-3.76,5.48-7.19,10.59-8.12A15.61,15.61,0,0,1,514.44,2249.15Z"/><path class="a" d="M599.88,2225.74a51.61,51.61,0,0,0,6.2-23.3,86.22,86.22,0,0,0-8.33-5.62c-1.15-.68-2.45-1.42-3.84-2.25-14.17,9.31-22.21,9.58-27,7.58-2.58-1.06-4.9-3-8.33-2.51-7,1.06-8.15,11-12.33,12.68-1.72,8.09-5.07,13.26-8.2,16.65-8.78,9.5-20.87,10.69-23.56,20.18a15.61,15.61,0,0,0,.65,9.64c.54-.1,1.08-.18,1.62-.23,4.11-.31,4.63,1.42,9.37,2.16,11.5,1.78,18.86-6.82,24.12-3.23a7.21,7.21,0,0,1,2.66,3.92,122.32,122.32,0,0,0,21.19-11.19C584.06,2243.6,593.52,2237.35,599.88,2225.74Z"/><path class="a" d="M655.24,2277.5c3.69-5.15-.73-12.59,1.07-13.44a5.55,5.55,0,0,1,1.93-.18,127.5,127.5,0,0,0-14.08-18.5c-14.51-15.83-26.83-21.27-25.27-28a5,5,0,0,1,1.06-2.08,100.23,100.23,0,0,0-13.87-12.88,51.61,51.61,0,0,1-6.2,23.3c-6.36,11.61-15.82,17.86-25.83,24.48a122.32,122.32,0,0,1-21.19,11.19c.09.29.15.52.18.65.84,3.53-1.24,6-2,8.34-2.7,8.53,9.78,23.6,21.57,24.22,4.26.22,4.59-1.65,10.78-1.62,1.27,0,13.29.19,15.9,5.92,1.31,2.89-.72,5.06-2,10a28.45,28.45,0,0,0-.79,9.24c2.21-.89,4.55-1.9,7.08-3.1,16.16-7.64,18.52-12.21,33.7-16.48,6.86-1.93,18.07-4.28,18.19-8.11.09-2.86-6.07-4.59-5.61-7.86C650.2,2280.33,653.18,2280.35,655.24,2277.5Z"/><ellipse class="b" cx="598.83" cy="477.53" rx="20.49" ry="11.71"/><circle class="b" cx="595.27" cy="466.9" r="2.34"/><ellipse class="b" cx="612.42" cy="484.87" rx="2.18" ry="2.34"/><circle class="b" cx="613.74" cy="483.15" r="2.34"/><ellipse class="b" cx="593.79" cy="467.04" rx="2.41" ry="1.87"/><text class="c" transform="translate(569.07 480.81)">H Ni</text><text class="c" transform="translate(540.38 425.62)"><tspan class="d">V<tspan class="e" x="11.25" y="0">nh</tspan></tspan><tspan x="0" y="17.79">Phc</tspan></text><text class="c" transform="translate(613.78 506.37)">H<tspan class="f" x="12.01" y="0"></tspan><tspan class="g" x="22.13" y="0">n</tspan><tspan x="32.3" y="0">g</tspan><tspan class="h"><tspan x="7.15" y="17.79">Y</tspan><tspan class="e" x="16.06" y="17.79">n</tspan></tspan></text><text class="c" transform="translate(583.28 379.19)">Thi<tspan x="-13.87" y="17.79">Ngu</tspan><tspan class="i" x="18.51" y="17.79">y</tspan><tspan x="26.86" y="17.79">n</tspan></text><text class="j" transform="translate(670.86 361.02)"><tspan class="k">L</tspan><tspan class="l" x="13.1" y="0"></tspan><tspan class="k" x="26.34" y="0">n</tspan><tspan x="41.31" y="0">g Sn</tspan></text><text class="j" transform="translate(603.14 219.26)"><tspan class="m">C</tspan><tspan class="n" x="15.76" y="0">a</tspan><tspan x="29.03" y="0">o B</tspan><tspan class="k" x="78.98" y="0">n</tspan><tspan x="93.96" y="0">g</tspan></text><text class="j" transform="translate(403.99 216.21)">H Gia<tspan class="k" x="73.35" y="0">n</tspan><tspan x="88.33" y="0">g</tspan></text><text class="j" transform="translate(299 282.66)"><tspan class="k">L</tspan><tspan x="26.36" y="0">o </tspan><tspan class="o" x="46.46" y="0">C</tspan><tspan class="l" x="62.22" y="0">ai</tspan></text><text class="p" transform="translate(151.61 279.23)">L<tspan class="l" x="13.1" y="0">ai Chu</tspan></text><text class="j" transform="translate(134.06 343.67)">in Bin</text><text class="j" transform="translate(367.31 363.37)"><tspan class="q">Y</tspan><tspan x="13.12" y="0">n Bi</tspan></text><text class="j" transform="translate(296.91 449.33)">Sn <tspan class="k" x="48.78" y="0">L</tspan><tspan class="l" x="61.87" y="0">a</tspan></text><text class="j" transform="translate(466.54 426.49)">Ph<tspan x="1.74" y="26.19">T</tspan><tspan class="n" x="14.87" y="26.19">h</tspan><tspan x="29.85" y="26.19"></tspan></text><text class="j" transform="translate(500.28 520.8)">H<tspan class="r" x="17.68" y="0"></tspan><tspan x="31.6" y="0">a</tspan><tspan x="-3.98" y="26.19">Bnh</tspan></text><text class="s" transform="translate(608.63 548.33)">H<tspan x="-8.15" y="18.57">Nam</tspan></text><text class="s" transform="translate(581.96 598.85)">Ninh<tspan x="0.38" y="18.57">Bnh</tspan></text><text class="t" transform="translate(491.92 650.28)">Thanh H<tspan class="u" x="92.99" y="0"></tspan><tspan class="v" x="106.63" y="0">a</tspan></text><text class="w" transform="translate(398.23 769.23)">Ng<tspan class="x" x="41.58" y="0">h</tspan><tspan x="60.55" y="0"> An</tspan></text><text class="w" transform="translate(510.02 898)">H <tspan class="y" x="46.81" y="0">T</tspan><tspan x="64.28" y="0">nh</tspan></text><text class="w" transform="translate(610.43 1014.83)">Qu<tspan class="x" x="58.89" y="0">n</tspan><tspan x="77.86" y="0">g Bnh</tspan></text><text class="w" transform="translate(735 1146.03)">Qu<tspan class="x" x="58.89" y="0">n</tspan><tspan x="77.86" y="0">g </tspan><tspan class="z" x="104.68" y="0">T</tspan><tspan class="aa" x="120.97" y="0">r</tspan><tspan x="132.44" y="0"></tspan></text><text class="ab" transform="translate(809.49 1218.88)">Th<tspan class="ac" x="29.51" y="0"></tspan><tspan x="45.13" y="0">a Thin - Hu</tspan></text><text class="ad" transform="translate(955.33 1257.48)">k N<tspan class="ae" x="80.98" y="0">n</tspan><tspan class="af" x="95.56" y="0">g</tspan></text><text class="ag" transform="translate(876 1319.18)">Qu<tspan class="ah" x="51.31" y="0">n</tspan><tspan class="ai" x="67.83" y="0">g Nam</tspan></text><text class="aj" transform="translate(1006.35 1412.09)">Qu<tspan class="ak" x="45.2" y="0">n</tspan><tspan x="59.76" y="0">g Ngi</tspan></text><text class="aj" transform="translate(885.46 1470.42)"><tspan class="al">K</tspan><tspan x="14.98" y="0">on </tspan><tspan class="am" x="49.06" y="0">T</tspan><tspan x="61.56" y="0">um</tspan></text><text class="aj" transform="translate(936.3 1617.68)">Gia <tspan class="an" x="41.25" y="0">L</tspan><tspan x="53.99" y="0">ai</tspan></text><text class="aj" transform="translate(1067.64 1731.76)">Ph <tspan class="ao" x="50.25" y="0">Y</tspan><tspan x="63.01" y="0">n</tspan></text><text class="aj" transform="translate(1067.86 1851.51)">Khnh H<tspan class="ap" x="95.01" y="0"></tspan><tspan x="108.55" y="0">a</tspan></text><text class="aj" transform="translate(842.05 1871.67)"> N<tspan class="an" x="66.55" y="0">n</tspan><tspan class="aq" x="81.11" y="0">g</tspan></text><text class="aj" transform="translate(893.23 1946.55)"><tspan class="an">L</tspan><tspan x="12.73" y="0">m </tspan><tspan class="an" x="85.25" y="0">n</tspan><tspan class="aq" x="99.8" y="0">g</tspan></text><text class="aj" transform="translate(879.97 2030.04)">Bnh Thun</text><text class="ar" transform="translate(690.21 2008.1)">Bnh D<tspan class="as" x="56.98" y="0"></tspan><tspan x="67.87" y="0"></tspan><tspan class="at" x="78.3" y="0">n</tspan><tspan x="89.4" y="0">g</tspan></text><text class="au" transform="translate(728.12 2075.08)">H<tspan x="-2.1" y="20.46">Ch</tspan><tspan x="-9.88" y="40.91">Minh</tspan></text><text class="aj" transform="translate(769.19 2062.18)"><tspan class="ak" x="31.43" y="0">n</tspan><tspan x="45.99" y="0">g Nai</tspan></text><text class="aj" transform="translate(600.7 1950.21)"><tspan class="av">T</tspan><tspan class="aw" x="12.18" y="0"></tspan><tspan x="24.85" y="0">y Ninh</tspan></text><text class="aj" transform="translate(602.76 2089.7)"><tspan class="ax">L</tspan><tspan x="12.61" y="0">o</tspan><tspan class="ak" x="26.29" y="0">n</tspan><tspan x="40.85" y="0">g An</tspan></text><text class="aj" transform="translate(521.91 2087.41)"><tspan class="ak" x="31.43" y="0">n</tspan><tspan x="45.99" y="0">g</tspan><tspan x="2.98" y="25.47">Thp</tspan></text><text class="aj" transform="translate(435.42 2128.96)">An Gia<tspan class="ak" x="71.69" y="0">n</tspan><tspan x="86.24" y="0">g</tspan></text><text class="aj" transform="translate(395.78 2232.8)">Kin Gia<tspan class="ak" x="90.59" y="0">n</tspan><tspan x="105.15" y="0">g</tspan></text><text class="aj" transform="translate(432.91 2356.79)"><tspan class="ay">C</tspan><tspan x="15.32" y="0"> Mau</tspan></text><text class="aj" transform="translate(519.6 2176.42)"><tspan class="ay">C</tspan><tspan x="15.32" y="0">n</tspan><tspan x="0.86" y="25.47">T</tspan><tspan class="an" x="13.63" y="25.47">h</tspan><tspan x="28.19" y="25.47"></tspan></text><text class="aj" transform="translate(548.32 2224.49)">Hu<tspan x="-10.08" y="25.47">Gia</tspan><tspan class="ak" x="25.32" y="25.47">n</tspan><tspan x="39.88" y="25.47">g</tspan></text><text class="aj" transform="translate(566.93 2283.74)">Sc <tspan class="am" x="45.22" y="0">T</tspan><tspan class="az" x="57.72" y="0">r</tspan><tspan x="65.72" y="0"></tspan><tspan class="an" x="78.6" y="0">n</tspan><tspan class="aq" x="93.16" y="0">g</tspan></text><text class="aj" transform="translate(510.8 2318.12)">B<tspan class="ak" x="16.15" y="0"></tspan><tspan x="29.05" y="0">c Liu</tspan></text><text class="aj" transform="translate(610.79 2141.66)">Tin Gia<tspan class="ak" x="87.9" y="0">n</tspan><tspan x="102.46" y="0">g</tspan></text><text class="ba" transform="translate(604.43 2181.75)">V<tspan class="bb" x="14.62" y="0">nh</tspan><tspan class="bc"><tspan x="-1.94" y="23.12">L</tspan><tspan class="bb" x="9.51" y="23.12">o</tspan><tspan class="bd" x="21.93" y="23.12">n</tspan><tspan class="bb" x="35.14" y="23.12">g</tspan></tspan></text><text class="aj" transform="translate(661.83 2175.98)">Bn <tspan class="be" x="49.74" y="0">T</tspan><tspan class="aw" x="62.24" y="0">r</tspan><tspan x="70.94" y="0">e</tspan></text><text class="aj" transform="translate(642.39 2240.83)"><tspan class="am">T</tspan><tspan class="az" x="12.5" y="0">r</tspan><tspan x="20.5" y="0"> </tspan><tspan class="bf" x="39.24" y="0">V</tspan><tspan class="aq" x="54.5" y="0">inh</tspan></text><text class="aj" transform="translate(798.87 2122.45)">B Ra - <tspan class="bg" x="89.3" y="0">V</tspan><tspan x="104.09" y="0"></tspan><tspan class="ak" x="118.54" y="0">n</tspan><tspan x="133.1" y="0">g </tspan><tspan class="bh" x="153.68" y="0">T</tspan><tspan x="165.86" y="0">u</tspan></text><text class="aj" transform="translate(703.89 1927.42)">Bnh Ph<tspan class="bi" x="87.16" y="0"></tspan><tspan x="101.44" y="0">c</tspan></text><text class="aj" transform="translate(1068.98 1939.7)">Ninh Thun</text><text class="bj" transform="translate(919.33 1764.16)">k <tspan class="bk" x="56.04" y="0">L</tspan><tspan class="bl" x="70.32" y="0">k</tspan></text><text class="aj" transform="translate(1066.99 1567.08)">Bnh nh</text><text class="j" transform="translate(561.82 293.87)">B<tspan class="n" x="16.61" y="0"></tspan><tspan x="29.88" y="0">c </tspan><tspan class="bm" x="48.58" y="0">K</tspan><tspan x="64.21" y="0">n</tspan></text><text class="j" transform="translate(472.04 293.87)"><tspan class="bm">T</tspan><tspan class="bn" x="12.85" y="0">u</tspan><tspan class="bo" x="27.72" y="0">y</tspan><tspan x="40.01" y="0">n</tspan><tspan x="-4.04" y="26.19">Qua</tspan><tspan class="n" x="42.45" y="26.19">n</tspan><tspan x="57.42" y="26.19">g</tspan></text><text class="j" transform="translate(640.79 439.51)">B<tspan class="n" x="16.61" y="0"></tspan><tspan x="29.88" y="0">c Gia</tspan><tspan class="k" x="84.99" y="0">n</tspan><tspan x="99.96" y="0">g</tspan></text><text class="bp" transform="translate(678.41 474.09)">Hi<tspan x="-15.07" y="19.9">D</tspan><tspan class="bq" x="-1.38" y="19.9"></tspan><tspan class="br" x="9.78" y="19.9"></tspan><tspan class="bs" x="20.48" y="19.9">n</tspan><tspan class="bt" x="31.85" y="19.9">g</tspan></text><text class="bp" transform="translate(725.67 474.09)">Qu<tspan class="bs" x="35.31" y="0">n</tspan><tspan x="46.69" y="0">g Ninh</tspan></text><text class="bp" transform="translate(701.88 522.86)">Hi P<tspan class="bs" x="44.9" y="0">h</tspan><tspan x="56.27" y="0"></tspan><tspan class="bs" x="66.96" y="0">n</tspan><tspan x="78.34" y="0">g</tspan></text><text class="bp" transform="translate(668.89 561.57)">Thi Bnh</text><text class="bp" transform="translate(652.78 605.84)">Nam nh</text><text class="bu" transform="translate(632.97 461.34)">B<tspan class="bv" x="10.67" y="0"></tspan><tspan x="19.19" y="0">c</tspan><tspan x="-3.64" y="16.82">Ninh</tspan></text><polygon class="a" points="1556.3 1039.88 1592.07 1108.58 1672.05 1119.6 1614.18 1173.07 1627.84 1248.58 1556.3 1212.93 1484.77 1248.58 1498.43 1173.07 1440.55 1119.6 1520.54 1108.58 1556.3 1039.88"/><polygon class="a" points="1770.3 1734.02 1806.07 1802.72 1886.05 1813.74 1828.17 1867.21 1841.83 1942.72 1770.3 1907.07 1698.76 1942.72 1712.42 1867.21 1654.55 1813.74 1734.53 1802.72 1770.3 1734.02"/><text class="bw" transform="translate(1506.04 1146.03)">H<tspan class="bx" x="23.71" y="0">o</tspan><tspan x="42.38" y="0"></tspan><tspan class="by" x="60.14" y="0">n</tspan><tspan class="bz" x="80.22" y="0">g</tspan><tspan x="32.18" y="35.12">Sa</tspan></text><text class="ca" transform="translate(1709.49 1843.36) scale(0.98 1)"><tspan class="cb">T</tspan><tspan class="cc" x="18.84" y="0">r</tspan><tspan class="cd" x="32.28" y="0"></tspan><tspan x="53.81" y="0"></tspan><tspan class="ce" x="74.44" y="0">n</tspan><tspan class="cf" x="96.38" y="0">g</tspan><tspan x="39.52" y="38.39">Sa</tspan></text></svg>